<svg width="951" height="673" viewBox="0 0 951 673" fill="none" xmlns="http://www.w3.org/2000/svg">
<g clip-path="url(#clip0_78_865)">
<path opacity="0.1" d="M316.168 672.622C362.481 672.622 400.025 666.597 400.025 659.166C400.025 651.734 362.481 645.71 316.168 645.71C269.855 645.71 232.311 651.734 232.311 659.166C232.311 666.597 269.855 672.622 316.168 672.622Z" fill="#77A87E"/>
<path opacity="0.1" d="M772.003 673C829.795 673 876.644 666.976 876.644 659.544C876.644 652.113 829.795 646.088 772.003 646.088C714.212 646.088 667.363 652.113 667.363 659.544C667.363 666.976 714.212 673 772.003 673Z" fill="#77A87E"/>
<path opacity="0.1" d="M11.9107 290.784H99.2532V409.721H18.3049C18.0898 410.941 17.8832 412.171 17.6595 413.401H99.2532V509.32C99.1069 509.277 98.9778 509.225 98.8401 509.174C96.5337 508.262 94.2445 507.299 91.9553 506.268L90.4922 505.606C88.1973 504.522 85.9024 503.376 83.6074 502.166C82.8071 501.745 82.0067 501.307 81.215 500.859C68.4745 493.729 56.9004 484.694 46.8941 474.068C46.6015 473.784 46.3261 473.483 46.0335 473.208C44.6394 471.695 43.271 470.165 41.9457 468.6L40.4827 466.88C38.9164 464.963 37.4017 462.994 35.9301 460.999C35.7149 460.707 35.5084 460.414 35.2846 460.139C29.2995 451.848 24.33 442.871 20.4823 433.4C20.3618 433.116 20.2585 432.806 20.1466 432.54C18.9647 429.502 17.9177 426.435 17.0054 423.34C16.6095 422.042 16.2309 420.76 15.9039 419.411C15.7834 419.015 15.6801 418.628 15.5854 418.241C10.6972 399.179 10.1206 379.378 10.1206 359.715C10.1206 357.419 10.1206 355.115 10.1206 352.836C10.1206 344.883 10.2153 336.878 10.353 328.882C10.353 326.81 10.439 324.747 10.4821 322.666C10.6025 317.387 10.7747 312.107 10.9984 306.828C11.0501 305.358 11.1189 303.896 11.1964 302.435C11.1964 301.592 11.2394 300.75 11.3254 299.907C11.532 296.846 11.7041 293.811 11.9107 290.784Z" fill="#77A87E"/>
<path opacity="0.1" d="M99.2532 158.358H51.3435C59.1315 146.18 67.6408 134.477 76.8259 123.313C83.9431 114.577 91.4562 106.065 99.2532 97.8624V158.358Z" fill="#77A87E"/>
<path opacity="0.1" d="M99.2532 162.038V287.104H12.186C12.186 286.743 12.2463 286.374 12.2721 286.013C12.3495 285.024 12.427 284.035 12.5131 283.055C12.6077 281.903 12.711 280.742 12.8229 279.616C12.9348 278.489 13.0552 277.114 13.1843 275.867C13.3134 274.62 13.4339 273.356 13.5802 272.11C13.7265 270.863 13.8556 269.616 14.0105 268.378C14.1654 267.14 14.3031 265.885 14.4666 264.647C14.5957 263.615 14.7334 262.592 14.8711 261.56C15.069 260.107 15.2756 258.645 15.4994 257.201C15.4994 256.986 15.5596 256.762 15.594 256.556C17.1648 245.982 19.305 235.5 22.0055 225.156C24.8322 214.305 28.4419 203.673 32.8061 193.343C37.4444 182.537 42.8752 172.088 49.0542 162.081L99.2532 162.038Z" fill="#77A87E"/>
<path opacity="0.1" d="M120.106 290.776V409.721H306.658V290.776H120.106ZM120.106 413.392V515.536C121.173 515.76 122.231 515.975 123.281 516.155C124.71 516.43 126.13 516.68 127.584 516.895C127.86 516.938 128.144 516.981 128.445 517.006C129.013 517.101 129.598 517.178 130.166 517.256C131.603 517.453 133.032 517.617 134.469 517.746C135.149 517.815 135.838 517.875 136.526 517.926L138.187 518.055C139.091 518.124 139.986 518.176 140.872 518.202C141.423 518.202 141.974 518.253 142.542 518.27C142.972 518.27 143.402 518.27 143.85 518.27C144.297 518.27 144.934 518.27 145.476 518.27C146.216 518.27 146.957 518.27 147.688 518.27H148.678C149.418 518.27 150.158 518.27 150.889 518.202H150.941C151.449 518.202 151.965 518.202 152.482 518.133C152.625 518.141 152.769 518.141 152.912 518.133C153.342 518.133 153.772 518.133 154.186 518.073H154.487L157.37 517.849C158.316 517.763 159.272 517.651 160.236 517.548L162.198 517.316C170.181 516.198 178.075 514.521 185.821 512.295C203.223 507.445 220.245 500.662 237.638 495.692C260.126 489.286 284.971 486.14 306.701 493.972V413.392H120.106ZM306.658 158.358V0.00856787C286.234 -0.212507 265.865 2.17413 246.046 7.11052C198.808 18.9672 156.423 44.6838 120.106 77.5282V158.349H129.469V162.021H120.106V287.104H306.658V162.029H167.912V158.358H306.658ZM546.276 104.87C534.589 104.457 522.971 100.76 512.463 95.0509C492.368 84.1314 476.318 67.2707 458.383 53.041C421.119 23.4037 374.904 5.51989 327.494 1.08332V158.358H593.807L594.47 157.662L546.276 104.87ZM570.536 100.571L596.26 128.772V93.1765C587.645 94.2427 580.098 96.7791 570.571 100.536L570.536 100.571ZM596.26 540.9V413.392H541.448C541.302 412.85 541.155 412.3 540.983 411.75C541.147 412.3 541.284 412.85 541.439 413.392H327.528V505.605C329.559 507.11 331.564 508.692 333.552 510.3C335.695 512.02 337.812 513.834 339.938 515.614L342.081 517.385C343.105 518.245 344.138 519.104 345.179 519.913C347.244 521.586 349.33 523.237 351.436 524.865C352.477 525.725 353.544 526.499 354.603 527.307C371.408 540.143 389.135 551.727 407.642 561.965C411.79 564.258 415.975 566.497 420.198 568.68C423.012 570.116 425.843 571.544 428.683 572.928C432.952 575.009 437.255 577.015 441.592 578.946C481.581 596.88 523.867 609.187 567.24 615.514C576.873 616.935 586.544 618.053 596.251 618.867V540.892H597.112L596.26 540.9ZM327.528 162.029V287.104H596.294V162.029H327.528ZM327.528 290.776V409.721H596.294V290.776H327.528ZM617.155 93.0218V132.727L649.987 96.7361C639.109 94.9821 628.165 93.7297 617.155 92.9788V93.0218ZM617.155 290.819V409.721H878.563V290.776L617.155 290.819ZM877.608 550.341L878.529 413.392H617.155V620.234C633.993 620.941 650.856 620.74 667.672 619.632H667.965C675.997 619.128 683.992 618.394 691.95 617.431H692.131C734.585 612.495 776.097 601.428 815.369 584.578M928.969 310.362C927.988 308.049 926.963 305.754 925.922 303.484C923.977 299.185 921.92 295.006 919.803 290.827H899.407V409.721H950.974C950.948 376.051 942.42 341.659 928.994 310.319L928.969 310.362ZM899.407 413.435V531.228C913.934 517.316 926.206 501.401 935.044 483.208C945.673 461.3 950.535 437.578 950.931 413.418L899.407 413.435ZM899.407 256.16V287.113H917.893C912.3 276.458 906.138 266.111 899.433 256.117L899.407 256.16ZM722.123 116.357C720.763 115.841 719.403 115.316 718.035 114.809C703.603 109.485 688.856 105.057 673.878 101.551L623.635 156.638L622.672 157.662L623.317 158.367H802.133C777.229 141.24 750.38 127.124 722.149 116.314L722.123 116.357ZM807.374 162.072H620.821L617.155 165.426V287.104H649.29H649.342H878.598V228.165C857.859 203.107 833.923 180.872 807.4 162.029L807.374 162.072Z" fill="#77A87E"/>
<path opacity="0.1" d="M99.2532 225.121V287.104H12.186C12.186 286.743 12.2463 286.374 12.2721 286.013C12.3495 285.024 12.427 284.035 12.5131 283.055C12.6077 281.903 12.711 280.742 12.8229 279.616C12.9348 278.489 13.0552 277.114 13.1843 275.867C13.3134 274.62 13.4339 273.356 13.5802 272.11C13.7265 270.863 13.8556 269.616 14.0105 268.378C14.1654 267.14 14.3031 265.885 14.4666 264.646C14.5957 263.615 14.7334 262.592 14.8711 261.56C15.069 260.107 15.2756 258.645 15.4994 257.201C15.4994 256.986 15.5596 256.762 15.594 256.556C17.1648 245.982 19.305 235.5 22.0055 225.156L99.2532 225.121Z" fill="#77A87E"/>
<path opacity="0.1" d="M11.9107 290.784H99.2532V409.721H18.3049C18.0898 410.941 17.8832 412.171 17.6595 413.401H99.2532V509.32C99.1069 509.277 98.9778 509.225 98.8401 509.174C96.5337 508.262 94.2445 507.299 91.9553 506.268L90.4922 505.606C88.1973 504.522 85.9024 503.376 83.6074 502.166C82.8071 501.745 82.0067 501.307 81.215 500.859C68.4745 493.729 56.9004 484.694 46.8941 474.068C46.6015 473.784 46.3261 473.483 46.0335 473.208C44.6394 471.695 43.271 470.165 41.9457 468.6L40.4827 466.88C38.9164 464.963 37.4017 462.994 35.9301 460.999C35.7149 460.707 35.5084 460.414 35.2846 460.139C29.2995 451.848 24.33 442.871 20.4823 433.4C20.3618 433.116 20.2585 432.806 20.1466 432.54C18.9647 429.502 17.9177 426.435 17.0054 423.34C16.6095 422.042 16.2309 420.76 15.9039 419.411C15.7834 419.015 15.6801 418.628 15.5854 418.241C10.6972 399.179 10.1206 379.378 10.1206 359.715C10.1206 357.419 10.1206 355.115 10.1206 352.836C10.1206 344.883 10.2153 336.878 10.353 328.882C10.353 326.81 10.439 324.747 10.4821 322.666C10.6025 317.387 10.7747 312.107 10.9984 306.828C11.0501 305.358 11.1189 303.896 11.1964 302.435C11.1964 301.592 11.2394 300.75 11.3254 299.907C11.532 296.846 11.7041 293.811 11.9107 290.784Z" fill="#77A87E"/>
<path opacity="0.1" d="M185.778 179.939V287.104H120.106V179.939H129.469V143.655H167.904V179.939H185.778Z" fill="#77A87E"/>
<path opacity="0.1" d="M185.778 290.776H120.114V409.712H185.778V290.776Z" fill="#77A87E"/>
<path opacity="0.1" d="M120.106 413.401H185.778V512.278C178.032 514.501 170.137 516.176 162.155 517.29L160.193 517.531C159.229 517.643 158.273 517.737 157.327 517.832C156.38 517.926 155.399 517.995 154.444 518.055H154.143C153.729 518.055 153.282 518.107 152.877 518.116H152.439C151.922 518.116 151.406 518.167 150.889 518.184C150.158 518.227 149.426 518.236 148.678 518.245C148.359 518.245 148.058 518.245 147.74 518.245C147 518.245 146.268 518.245 145.528 518.245H143.901C143.462 518.245 143.041 518.245 142.585 518.245L140.924 518.184C140.063 518.184 139.134 518.09 138.239 518.03L136.586 517.909L134.529 517.72C133.084 517.591 131.646 517.428 130.226 517.23L128.505 516.989L127.645 516.869C126.207 516.645 124.787 516.405 123.342 516.129C122.283 515.949 121.233 515.725 120.166 515.51L120.106 413.401Z" fill="#77A87E"/>
<path opacity="0.1" d="M596.294 167.283H542.145V287.096H596.294V167.283Z" fill="#77A87E"/>
<path opacity="0.1" d="M596.303 290.776V409.721H327.528V358.416H470.689V388.681H542.145V290.776H596.303Z" fill="#77A87E"/>
<path opacity="0.1" d="M597.155 540.926H596.294V618.953C586.598 618.133 576.931 617.018 567.292 615.608C523.897 609.261 481.594 596.929 441.592 578.964C430.043 573.77 418.729 568.101 407.65 561.957C389.144 551.714 371.414 540.13 354.603 527.298C350.38 524.065 346.212 520.758 342.098 517.376C339.249 515.029 336.418 512.621 333.552 510.283C331.564 508.675 329.559 507.093 327.528 505.58V413.4H541.431C541.284 412.85 541.138 412.3 540.983 411.758C541.147 412.3 541.302 412.85 541.448 413.4H596.294V540.874C596.587 540.883 596.871 540.909 597.155 540.926Z" fill="#77A87E"/>
<path opacity="0.1" d="M737.519 158.358H702.234V147.404H718.052V114.775C719.423 115.273 720.789 115.786 722.149 116.314V147.404H737.519V158.358Z" fill="#77A87E"/>
<path opacity="0.1" d="M822.529 287.104H649.307C649.307 287.104 649.307 287.105 649.367 287.147L649.29 287.104H617.155V167.291H626.26V255.851H667.87V203.403H702.243V162.038H737.527V203.437H771.9V255.885H822.529V287.104Z" fill="#77A87E"/>
<path opacity="0.1" d="M617.155 290.776V409.721H822.529V290.776H617.155ZM878.279 549.73L878.563 455.582H822.529V413.452H617.155V620.234C633.993 620.941 650.856 620.74 667.672 619.632H667.965C675.997 619.128 683.992 618.394 691.95 617.431H692.131C734.585 612.495 776.097 601.429 815.369 584.578" fill="#77A87E"/>
<path opacity="0.1" d="M903.056 413.401H950.966C950.544 437.552 945.69 461.274 935.07 483.182C926.232 501.384 913.951 517.299 899.441 531.202V455.539H903.056V413.401Z" fill="#77A87E"/>
<path opacity="0.1" d="M950.991 409.721H903.056V310.319H928.994C942.42 341.659 950.948 376.051 950.991 409.721Z" fill="#77A87E"/>
<path opacity="0.1" d="M596.303 200.591H567.292V238.156H596.303V200.591Z" fill="#77A87E"/>
<path opacity="0.1" d="M596.303 278.455H567.292V287.104H596.303V278.455Z" fill="#77A87E"/>
<path opacity="0.1" d="M596.303 290.776H567.292V316.011H596.303V290.776Z" fill="#77A87E"/>
<path opacity="0.1" d="M596.303 356.318H567.292V393.883H596.303V356.318Z" fill="#77A87E"/>
<path opacity="0.1" d="M596.303 434.182H567.292V471.747H596.303V434.182Z" fill="#77A87E"/>
<path opacity="0.1" d="M596.294 540.875C596.587 540.875 596.871 540.875 597.155 540.926H596.294V549.653H567.292V512.045H596.294V540.875Z" fill="#77A87E"/>
<path opacity="0.1" d="M596.294 589.892V618.91C586.598 618.09 576.93 616.975 567.292 615.565V589.892H596.294Z" fill="#77A87E"/>
<path opacity="0.1" d="M451.859 406.961H327.528V409.721H451.859V406.961Z" fill="#77A87E"/>
<path opacity="0.1" d="M451.859 413.392H327.528V423.967H451.859V413.392Z" fill="#77A87E"/>
<path opacity="0.1" d="M451.859 458.635H327.528V475.641H451.859V458.635Z" fill="#77A87E"/>
<path opacity="0.1" d="M451.851 510.309V527.315H354.603C350.38 524.094 346.209 520.787 342.089 517.393C339.241 515.046 336.418 512.639 333.544 510.309H451.851Z" fill="#77A87E"/>
<path opacity="0.1" d="M451.851 561.974V578.964H441.584C430.046 573.765 418.735 568.093 407.65 561.948L451.851 561.974Z" fill="#77A87E"/>
<path opacity="0.1" d="M692.157 302.306H667.681V326.759H692.157V302.306Z" fill="#77A87E"/>
<path opacity="0.1" d="M162.215 188.374H137.74V212.826H162.215V188.374Z" fill="#77A87E"/>
<path opacity="0.1" d="M162.215 245.172H137.74V269.625H162.215V245.172Z" fill="#77A87E"/>
<path opacity="0.1" d="M162.215 301.97H137.74V326.423H162.215V301.97Z" fill="#77A87E"/>
<path opacity="0.1" d="M162.215 358.76H137.74V383.213H162.215V358.76Z" fill="#77A87E"/>
<path opacity="0.1" d="M162.215 415.559H137.74V440.011H162.215V415.559Z" fill="#77A87E"/>
<path opacity="0.1" d="M162.215 472.357H137.74V496.81H162.215V472.357Z" fill="#77A87E"/>
<path opacity="0.1" d="M785.592 302.306H761.117V326.759H785.592V302.306Z" fill="#77A87E"/>
<path opacity="0.1" d="M692.157 362.621H667.681V387.073H692.157V362.621Z" fill="#77A87E"/>
<path opacity="0.1" d="M785.592 362.621H761.117V387.073H785.592V362.621Z" fill="#77A87E"/>
<path opacity="0.1" d="M692.157 422.927H667.681V447.38H692.157V422.927Z" fill="#77A87E"/>
<path opacity="0.1" d="M785.592 422.927H761.117V447.38H785.592V422.927Z" fill="#77A87E"/>
<path opacity="0.1" d="M692.157 483.242H667.681V507.695H692.157V483.242Z" fill="#77A87E"/>
<path opacity="0.1" d="M785.592 483.242H761.117V507.695H785.592V483.242Z" fill="#77A87E"/>
<path opacity="0.1" d="M692.157 543.557H667.681V568.01H692.157V543.557Z" fill="#77A87E"/>
<path opacity="0.1" d="M785.592 543.557H761.117V568.01H785.592V543.557Z" fill="#77A87E"/>
<path opacity="0.1" d="M667.681 619.632V603.864H692.148V617.388L667.681 619.632Z" fill="#77A87E"/>
<path opacity="0.1" d="M15.4907 256.539V270.528H99.2532V256.539H15.4907ZM23.8386 269.651H17.0054V257.398H23.8902L23.8386 269.651ZM32.1778 269.651H25.293V257.398H32.1778V269.651ZM40.4998 269.651H33.615V257.398H40.4998V269.651ZM48.8391 269.651H41.9629V257.398H48.8477L48.8391 269.651ZM57.1697 269.651H50.2849V257.398H57.1697V269.651ZM65.5089 269.651H58.6241V257.398H65.5089V269.651ZM73.8482 269.651H66.9633V257.398H73.8482V269.651ZM82.1788 269.651H75.294V257.398H82.1788V269.651ZM90.5094 269.651H83.6246V257.398H90.5094V269.651ZM98.84 269.651H91.9552V257.398H98.84V269.651Z" fill="#77A87E"/>
<path opacity="0.1" d="M15.4907 297.242V311.23H99.2532V297.242H15.4907ZM23.8386 310.345H17.0054V298.127H23.8902L23.8386 310.345ZM32.1778 310.345H25.293V298.127H32.1778V310.345ZM40.4998 310.345H33.615V298.127H40.4998V310.345ZM48.8391 310.345H41.9629V298.127H48.8477L48.8391 310.345ZM57.1697 310.345H50.2849V298.127H57.1697V310.345ZM65.5089 310.345H58.6241V298.127H65.5089V310.345ZM73.8482 310.345H66.9633V298.127H73.8482V310.345ZM82.1788 310.345H75.294V298.127H82.1788V310.345ZM90.5094 310.345H83.6246V298.127H90.5094V310.345ZM98.84 310.345H91.9552V298.127H98.84V310.345Z" fill="#77A87E"/>
<path opacity="0.1" d="M15.4907 337.962V351.976H99.2532V337.962H15.4907ZM23.8386 351.065H17.0054V338.839H23.8902L23.8386 351.065ZM32.1778 351.065H25.293V338.839H32.1778V351.065ZM40.4998 351.065H33.615V338.839H40.4998V351.065ZM48.8391 351.065H41.9629V338.839H48.8477L48.8391 351.065ZM57.1697 351.065H50.2849V338.839H57.1697V351.065ZM65.5089 351.065H58.6241V338.839H65.5089V351.065ZM73.8482 351.065H66.9633V338.839H73.8482V351.065ZM82.1788 351.065H75.294V338.839H82.1788V351.065ZM90.5094 351.065H83.6246V338.839H90.5094V351.065ZM98.84 351.065H91.9552V338.839H98.84V351.065Z" fill="#77A87E"/>
<path opacity="0.1" d="M15.4907 378.682V392.654H99.2532V378.682H15.4907ZM23.8386 391.785H17.0054V379.55H23.8902L23.8386 391.785ZM32.1778 391.785H25.293V379.55H32.1778V391.785ZM40.4998 391.785H33.615V379.55H40.4998V391.785ZM48.8391 391.785H41.9629V379.55H48.8477L48.8391 391.785ZM57.1697 391.785H50.2849V379.55H57.1697V391.785ZM65.5089 391.785H58.6241V379.55H65.5089V391.785ZM73.8482 391.785H66.9633V379.55H73.8482V391.785ZM82.1788 391.785H75.294V379.55H82.1788V391.785ZM90.5094 391.785H83.6246V379.55H90.5094V391.785ZM98.84 391.785H91.9552V379.55H98.84V391.785Z" fill="#77A87E"/>
<path opacity="0.1" d="M15.8523 419.393C16.1879 420.709 16.5666 422.024 16.9625 423.323V420.27H23.8473V432.497H20.1639C20.2758 432.78 20.3877 433.09 20.4995 433.357H99.2533V419.393H15.8523ZM32.2037 432.497H25.3189V420.27H32.2037V432.497ZM40.5258 432.497H33.6409V420.27H40.5258V432.497ZM48.865 432.497H41.963V420.27H48.8478L48.865 432.497ZM57.1956 432.497H50.3108V420.27H57.1956V432.497ZM65.5349 432.497H58.65V420.27H65.5349V432.497ZM73.8741 432.497H66.9893V420.27H73.8741V432.497ZM82.2047 432.497H75.3199V420.27H82.2047V432.497ZM90.5354 432.497H83.6505V420.27H90.5354V432.497ZM98.866 432.497H91.9812V420.27H98.866V432.497Z" fill="#77A87E"/>
<path opacity="0.1" d="M35.302 460.114C35.5172 460.389 35.7237 460.698 35.9475 460.973H40.5V466.846C40.9906 467.43 41.4725 468.015 41.9717 468.565V460.939H48.8565V473.208H46.0681C46.3435 473.492 46.6103 473.793 46.9287 474.068H99.2792V460.114H35.302ZM57.1699 473.208H50.2851V460.99H57.1699V473.208ZM65.5091 473.208H58.6243V460.99H65.5091V473.208ZM73.8484 473.208H66.9636V460.99H73.8484V473.208ZM82.179 473.208H75.2942V460.99H82.179V473.208ZM90.5096 473.208H83.6248V460.99H90.5096V473.208ZM98.8403 473.208H91.9554V460.99H98.8403V473.208Z" fill="#77A87E"/>
<path opacity="0.1" d="M81.2495 500.825C82.0327 501.272 82.833 501.685 83.642 502.132V501.702H90.5268V505.571L91.9898 506.25V501.702H98.8747V509.139C99.0067 509.205 99.1451 509.257 99.2877 509.294V500.825H81.2495Z" fill="#77A87E"/>
<path opacity="0.1" d="M540.983 411.75C541.147 412.3 541.284 412.85 541.439 413.392C541.302 412.85 541.155 412.3 540.983 411.75ZM129.503 158.332V162.004H167.947V158.332H129.503ZM540.983 411.75C541.147 412.3 541.284 412.85 541.439 413.392C541.302 412.85 541.155 412.3 540.983 411.75ZM540.983 411.75C541.147 412.3 541.284 412.85 541.439 413.392C541.302 412.85 541.155 412.3 540.983 411.75Z" fill="#77A87E"/>
<path d="M397.254 326.44C397.254 326.44 393.863 325.967 393.863 321.032C393.863 316.097 391.436 306.88 391.436 306.88C391.436 306.837 389.336 290.827 386.436 288.282C383.536 285.737 379.81 270.794 379.81 270.794C379.81 270.794 379.173 262.686 377.873 260.941C376.574 259.195 374.818 254.922 372.228 248.826C369.637 242.73 358.837 238.509 358.837 238.509C358.837 238.509 339.31 227.194 333.776 223.505C333.273 223.202 332.803 222.848 332.373 222.448C331.409 221.184 327.21 221.158 327.21 221.158C326.771 218.389 326.349 215.208 326.211 212.328C326.211 212.018 326.211 211.709 326.168 211.399C332.339 207.755 336.986 202.01 339.258 195.218C339.361 194.891 339.447 194.547 339.542 194.22C339.912 194.099 340.252 193.901 340.541 193.641C340.83 193.38 341.061 193.062 341.22 192.707C341.719 191.598 341.728 190.3 342.348 189.268C343.07 188.047 344.447 187.393 345.532 186.473C348.268 184.152 348.974 180.24 348.845 176.68C348.759 173.8 348.294 170.894 348.475 168.031L348.527 167.309C348.578 166.879 348.639 166.449 348.716 166.036C349.138 163.904 350.059 161.892 350.575 159.777C351.091 157.662 351.143 155.28 349.938 153.457C348.174 150.783 344.499 150.25 341.272 149.975C337.614 149.665 334.344 150.07 332.003 147.034C330.908 145.448 329.675 143.961 328.32 142.589C327.838 142.142 323.156 139.288 323.156 139.098C318.587 136.984 313.408 136.587 308.569 137.981C306.142 138.686 303.853 139.838 301.391 140.414C296.082 141.669 289.971 140.311 285.462 143.346C282.949 145.065 281.443 147.8 280.031 150.465C278.884 152.66 277.719 154.853 276.537 157.042C274.635 160.645 272.699 164.308 271.899 168.297C271.73 169.165 271.627 170.045 271.589 170.928V170.971C271.589 171.289 271.589 171.608 271.589 171.926V172.33C271.589 172.631 271.589 172.923 271.64 173.19C271.692 173.456 271.683 173.542 271.709 173.723C271.735 173.903 271.778 174.307 271.83 174.582C271.881 174.858 271.985 175.339 272.088 175.717C272.131 175.881 272.191 176.035 272.243 176.19C272.329 176.483 272.432 176.766 272.544 177.05C272.604 177.196 272.665 177.351 272.733 177.497C272.863 177.798 273.017 178.09 273.172 178.357C273.241 178.477 273.293 178.589 273.362 178.701C273.602 179.101 273.866 179.485 274.153 179.853C275.995 182.149 278.706 183.61 280.711 185.76C280.711 185.846 280.711 185.932 280.711 186.009C280.711 186.25 280.711 186.482 280.711 186.723C280.818 191.517 282.095 196.212 284.432 200.4C286.768 204.588 290.094 208.143 294.119 210.754C294.119 211.081 294.162 211.416 294.18 211.743C294.347 214.295 294.316 216.857 294.085 219.404C293.735 218.991 293.296 218.663 292.801 218.443C292.307 218.222 291.769 218.116 291.228 218.131C290.858 218.113 290.487 218.145 290.126 218.226L290.049 218.166V218.243C288.155 218.707 285.823 220.676 283.594 226.274C283.594 226.274 276.813 233.909 271.649 233.591C266.485 233.272 253.413 241.535 253.413 241.535C253.413 241.535 240.659 249.806 237.922 258.232C236.392 263.01 234.558 267.686 232.431 272.23L216.665 304.687L213.756 330.438C213.756 330.438 215.366 341.891 215.047 343.636C214.729 345.382 221.665 361.125 221.665 361.125C221.665 361.125 244.583 401.355 253.946 403.418L254.618 402.945C255.018 403.154 255.443 403.313 255.883 403.418L257.811 402.06C257.926 403.574 257.877 405.096 257.664 406.6C256.373 410.572 258.146 436.495 260.401 441.576C262.656 446.658 261.855 513.284 261.855 513.284L261.537 519.165C261.537 519.165 261.537 519.354 261.614 519.68L261.537 521.073L261.769 521.194C262.011 523.059 261.932 524.952 261.537 526.791C260.728 529.37 260.401 536.661 260.401 536.661C260.401 536.661 253.955 577.829 257.01 586.1C260.065 594.371 262.664 603.434 262.664 603.434C262.664 603.434 265.892 613.751 262.819 615.514C259.747 617.276 251.012 620.234 252.81 624.533C254.446 628.505 260.651 639.15 261.571 640.706L261.494 641.523L260.229 655.219C260.434 657.028 260.925 658.792 261.683 660.447C263.069 663.43 265.763 666.526 270.883 666.19C271.744 666.13 272.742 666.027 273.706 665.898C283.078 664.643 294.619 660.464 294.619 660.464C294.019 660.084 293.47 659.63 292.983 659.114C292.523 658.668 292.158 658.134 291.911 657.542C291.664 656.951 291.54 656.316 291.546 655.675C291.684 653.182 287.011 641.299 285.849 638.376C285.668 637.955 285.574 637.714 285.574 637.714C285.574 637.714 296.228 626.588 294.455 616.726C294.455 616.726 282.665 609.848 286.546 606.073C290.427 602.299 297.364 591.457 297.364 591.457C297.364 591.457 297.682 550.917 297.364 544.864C297.032 540.663 297.231 536.436 297.958 532.285C298.087 531.657 298.242 531.047 298.405 530.445C303.773 531.246 309.192 531.657 314.619 531.675C316.598 531.675 318.612 531.675 320.643 531.554C320.643 532.127 320.669 532.747 320.721 533.411C321.168 543.454 322.003 561.063 322.683 567.606C323.647 576.986 328.974 602.264 328.974 602.264C328.974 602.264 318.81 608.782 330.747 624.843C330.747 624.843 330.747 630.663 329.955 631.506C329.11 634.261 328.429 637.063 327.915 639.898C327.416 642.924 327.21 645.985 328.019 647.576C329.955 651.376 341.573 651.067 341.573 651.067L341.857 651.015C344.05 650.788 346.267 650.999 348.378 651.635C350.489 652.272 352.453 653.32 354.155 654.721C358.57 658.263 375.326 656.707 384.397 655.58C387.951 655.133 390.326 654.721 390.326 654.721C390.441 654.319 390.482 653.899 390.447 653.483C390.352 651.256 388.605 646.372 376.763 642.013C376.763 642.013 365.627 634.533 365.782 628.015H365.549H364.258C365.197 627.964 365.799 628.015 365.799 628.015C365.799 628.015 361.436 612.109 363.217 610.819C364.999 609.53 359.663 591.904 359.663 591.904C359.663 591.904 356.608 562.327 356.444 560.254C356.451 558.476 356.721 556.709 357.245 555.01L356.444 538.794C356.444 538.794 356.289 533.403 356.444 531.649C356.418 530.126 356.295 528.607 356.074 527.1C355.997 526.499 355.919 525.871 355.833 525.252C360.007 524.194 362.718 523.214 362.718 523.214L362.236 466.768C365.782 459.89 366.436 444.8 366.419 434.096C366.419 427.218 366.109 422.128 366.109 422.128L370.954 414.226C370.954 414.226 372.073 404.768 370.3 402.696C369.517 401.759 369.87 400.787 370.515 399.988C370.85 399.722 371.204 399.481 371.574 399.265C371.574 399.265 371.522 399.188 371.462 399.076C371.8 398.794 372.16 398.538 372.537 398.311C372.537 398.311 370.816 395.646 372.357 394.519C373.803 395.499 375.093 396.239 376.075 396.841C376.006 397.468 375.937 397.83 375.937 397.83L376.35 396.97C377.297 397.503 377.873 397.83 377.873 397.83C377.873 397.83 385.464 382.723 385.3 380.496C385.137 378.269 390.464 368.889 390.464 368.889C390.464 368.889 391.109 363.962 394.018 361.898C396.927 359.835 396.273 344.883 396.273 344.883C396.273 344.883 397.082 337.093 399.018 333.912C400.955 330.731 397.254 326.44 397.254 326.44ZM252.019 319.811L252.165 323.414C251.304 322.03 250.685 321.032 250.685 321.032L252.019 319.811Z" fill="url(#paint0_linear_78_865)"/>
<path d="M378.286 391.304L376.428 399.214C376.428 399.214 361.539 391.622 358.854 381.975C356.169 372.328 363.346 368.665 363.346 368.665L377.219 374.538L378.286 391.304Z" fill="white"/>
<path opacity="0.1" d="M378.286 391.304L376.428 399.214C376.428 399.214 361.539 391.622 358.854 381.975C356.169 372.328 363.346 368.665 363.346 368.665L377.219 374.538L378.286 391.304Z" fill="black"/>
<path d="M294.73 660.516C294.73 660.516 280.961 665.571 271.494 666.208C266.468 666.543 263.826 663.465 262.466 660.498C261.724 658.849 261.244 657.094 261.046 655.297L262.277 641.669L262.931 634.412L283.043 629.193L285.892 637.894L286.159 638.556C287.303 641.462 291.89 653.285 291.753 655.752C291.747 656.384 291.869 657.011 292.112 657.594C292.354 658.178 292.712 658.707 293.164 659.149C293.626 659.669 294.152 660.128 294.73 660.516Z" fill="white"/>
<path d="M388.786 653.586C388.82 653.999 388.779 654.416 388.665 654.815C388.665 654.815 359.215 659.725 353.191 654.815C351.493 653.381 349.513 652.317 347.379 651.693C345.245 651.068 343.003 650.895 340.799 651.187C340.799 651.187 329.404 651.496 327.502 647.748C326.71 646.174 326.917 643.122 327.408 640.113C327.908 637.293 328.575 634.505 329.404 631.764L329.86 631.403L332.571 629.228L364.31 628.29H364.551C364.396 634.773 375.326 642.211 375.326 642.211C386.935 646.51 388.648 651.367 388.786 653.586Z" fill="white"/>
<path opacity="0.1" d="M388.786 653.586C388.816 654 388.772 654.416 388.656 654.815C388.656 654.815 359.215 659.725 353.191 654.815C351.494 653.382 349.515 652.319 347.383 651.694C345.25 651.069 343.01 650.897 340.807 651.187C340.807 651.187 329.404 651.496 327.511 647.748C326.719 646.166 326.917 643.122 327.407 640.113C331.796 640.551 338.724 641.643 341.444 644.248C345.558 648.212 352.528 652.167 356.806 652.477C360.153 652.692 380.18 653.328 388.786 653.586Z" fill="black"/>
<path opacity="0.1" d="M294.73 660.516C294.73 660.516 280.961 665.571 271.494 666.208C266.468 666.543 263.826 663.465 262.475 660.49C265.978 661.668 270.84 662.906 273.396 661.771C276.425 660.43 287.166 659.561 293.19 659.192C293.648 659.693 294.166 660.138 294.73 660.516Z" fill="black"/>
<path d="M315.161 253.099C303.801 248.689 289.188 234.115 292.837 227.305C293.647 225.587 294.129 223.732 294.257 221.837C294.492 219.264 294.526 216.677 294.36 214.099C294.104 209.876 293.596 205.673 292.837 201.511C292.837 201.511 328.302 202.311 326.237 207.53C325.635 209.06 325.54 211.717 325.703 214.692C325.867 217.667 326.297 221.029 326.745 223.875C327.364 227.778 327.984 230.753 327.984 230.753C327.984 230.753 325.815 233.788 324.542 233.952C323.268 234.115 331.461 259.385 315.161 253.099Z" fill="#CF6F80"/>
<path opacity="0.1" d="M286.133 638.556L285.866 638.849C275.264 626.038 262.441 642.004 262.441 642.004L262.251 641.669L262.906 634.412L283.018 629.193L285.866 637.894L286.133 638.556Z" fill="black"/>
<path opacity="0.1" d="M364.56 629.193C364.56 629.193 356.814 629.03 352.683 632.675C348.553 636.321 328.587 633.466 329.447 632.675C329.702 632.283 329.856 631.834 329.895 631.369L332.606 629.193L364.345 628.256C364.465 628.832 364.56 629.193 364.56 629.193Z" fill="black"/>
<path d="M299.326 528.588C298.749 530.013 298.311 531.49 298.018 532.999C297.3 537.131 297.101 541.336 297.424 545.517C297.743 551.536 297.424 591.869 297.424 591.869C297.424 591.869 290.617 602.625 286.821 606.417C283.026 610.209 294.567 617.018 294.567 617.018C296.288 626.82 285.858 637.894 285.858 637.894C275.255 625.083 262.432 641.058 262.432 641.058C262.432 641.058 255.461 629.021 253.723 624.722C251.984 620.423 260.53 617.448 263.534 615.703C266.537 613.958 263.387 603.666 263.387 603.666C263.387 603.666 260.849 594.646 257.836 586.418C254.824 578.19 261.158 537.229 261.158 537.229C261.158 537.229 261.485 529.955 262.268 527.419C262.664 525.588 262.742 523.704 262.501 521.847C262.449 521.22 262.389 520.695 262.346 520.343C262.303 519.99 262.268 519.827 262.268 519.827L262.389 519.62L266.692 511.607C266.692 511.607 301.391 523.541 299.326 528.588Z" fill="#77A87E"/>
<path d="M364.56 628.247C364.56 628.247 356.814 628.084 352.683 631.687C348.552 635.289 328.586 632.478 329.447 631.687C330.308 630.896 330.239 625.04 330.239 625.04C318.526 609.065 328.518 602.582 328.518 602.582C328.518 602.582 323.285 577.433 322.339 568.104C321.676 561.587 320.858 544.073 320.419 534.073C320.23 529.774 320.118 526.817 320.118 526.817L329.688 524.891L330.919 524.641L354 520.016C354 520.016 354.637 524.315 355.067 527.831C355.282 529.333 355.402 530.846 355.429 532.362C355.274 534.082 355.429 539.464 355.429 539.464L356.212 555.603C355.7 557.296 355.436 559.054 355.429 560.822C355.584 562.877 358.587 592.299 358.587 592.299C358.587 592.299 363.811 609.856 362.03 611.12C360.248 612.384 364.56 628.247 364.56 628.247Z" fill="#77A87E"/>
<path opacity="0.1" d="M326.237 207.53C325.635 209.06 325.54 211.717 325.704 214.692C320.953 217.55 315.492 219.011 309.948 218.908C304.403 218.804 299.001 217.141 294.36 214.107C294.105 209.882 293.596 205.676 292.837 201.511C292.837 201.511 328.303 202.294 326.237 207.53Z" fill="black"/>
<path d="M339.947 188.528C339.953 191.627 339.465 194.706 338.501 197.651C336.345 204.249 331.923 209.873 326.018 213.529C320.113 217.185 313.104 218.637 306.231 217.63C299.358 216.623 293.062 213.22 288.457 208.024C283.851 202.827 281.233 196.172 281.064 189.233C281.064 188.993 281.064 188.769 281.064 188.528C280.997 184.623 281.71 180.743 283.159 177.115C284.609 173.488 286.767 170.185 289.508 167.399C292.249 164.614 295.518 162.401 299.124 160.891C302.729 159.381 306.6 158.603 310.51 158.603C314.419 158.603 318.29 159.381 321.896 160.891C325.501 162.401 328.77 164.614 331.511 167.399C334.252 170.185 336.41 173.488 337.86 177.115C339.31 180.743 340.022 184.623 339.955 188.528H339.947Z" fill="#CF6F80"/>
<path opacity="0.1" d="M315.161 253.099C303.801 248.689 289.188 234.115 292.837 227.305C293.647 225.587 294.129 223.732 294.257 221.837L309.808 234.605L319.43 242.489L326.745 223.883C327.364 227.787 327.984 230.762 327.984 230.762C327.984 230.762 325.815 233.797 324.542 233.96C323.268 234.124 331.461 259.384 315.161 253.099Z" fill="black"/>
<path d="M355.377 309.528L342.391 527.487L325.454 528.597L281.598 402.215L288.792 252.171L290.307 220.47L309.808 236.471L319.438 244.355L326.969 225.207L340.971 237.399L355.377 309.528Z" fill="#77A87E"/>
<path opacity="0.1" d="M299.326 528.588C298.749 530.013 298.311 531.49 298.018 532.999C285.694 531.098 273.725 527.362 262.509 521.916L262.277 521.796L262.355 520.411L262.398 519.689L266.701 511.676C266.701 511.676 301.391 523.541 299.326 528.588Z" fill="black"/>
<path opacity="0.1" d="M329.886 533.033C326.736 533.568 323.558 533.93 320.368 534.117C320.179 529.818 320.067 526.86 320.067 526.86L329.637 524.934L329.886 533.033Z" fill="black"/>
<path opacity="0.1" d="M355.016 527.874C348.897 529.465 339.447 531.253 330.988 530.136L330.867 524.684L353.949 520.059C353.949 520.059 354.585 524.315 355.016 527.874Z" fill="black"/>
<path opacity="0.1" d="M330.833 531.133C295.548 537.152 263.232 519.895 263.232 519.895L263.542 514.049C263.542 514.049 264.343 447.767 262.122 442.685C259.902 437.604 258.172 411.836 259.429 407.881C260.685 403.926 254.842 344.616 254.842 344.616L253.895 320.542L219.247 306.519L234.738 274.259C236.83 269.736 238.63 265.084 240.125 260.33C242.819 251.956 255.324 243.728 255.324 243.728C255.324 243.728 268.146 235.508 273.215 235.817C278.284 236.127 284.928 228.543 284.928 228.543C289.834 216.051 294.274 221.708 294.274 221.708C294.274 222.301 294.274 221.708 294.033 223.557C292.312 237.27 321.865 280.604 322.287 281.37L325.101 349.861L327.95 436.538L330.833 531.133Z" fill="black"/>
<path d="M329.886 531.133C294.601 537.152 262.277 519.895 262.277 519.895L262.596 514.049C262.596 514.049 263.396 447.767 261.167 442.685C258.938 437.604 257.217 411.836 258.482 407.881C259.747 403.926 253.895 344.617 253.895 344.617L252.94 320.542L218.275 306.467L233.765 274.207C235.853 269.683 237.653 265.03 239.153 260.279C241.838 251.904 254.351 243.676 254.351 243.676C254.351 243.676 267.174 235.456 272.234 235.766C277.295 236.075 283.947 228.492 283.947 228.492C288.861 215.999 294.274 221.656 294.274 221.656C294.274 222.25 293.758 222.516 294.033 223.505C297.82 236.806 320.919 280.553 321.34 281.318L324.189 349.81L327.038 436.486L329.886 531.133Z" fill="white"/>
<path opacity="0.1" d="M320.377 283.27C316.581 281.688 296.478 258.757 296.478 258.757V253.538C295.746 251.818 291.4 252.867 287.872 254.071L289.386 222.37L291.107 223.797C294.877 237.09 319.938 282.505 320.377 283.27Z" fill="black"/>
<path d="M321.332 281.37C317.528 279.788 297.424 256.857 297.424 256.857V251.638C296.693 249.918 292.347 250.967 288.818 252.171L290.341 220.47L292.063 221.897C295.841 235.19 320.91 280.613 321.332 281.37Z" fill="white"/>
<path opacity="0.1" d="M263.232 395.732C263.706 395.732 287.768 393.204 287.768 393.204C287.768 393.204 302.338 421.827 301.383 428.791C300.428 435.755 298.698 441.92 292.837 440.828C286.977 439.736 261.296 441.688 261.296 441.688L263.232 395.732Z" fill="black"/>
<path d="M262.277 393.832C262.751 393.832 286.813 391.304 286.813 391.304C286.813 391.304 301.374 419.935 300.428 426.891C299.481 433.847 297.734 440.02 291.882 438.928C286.03 437.836 260.341 439.788 260.341 439.788L262.277 393.832Z" fill="white"/>
<path d="M280.41 380.393C280.41 380.393 302.493 392.249 302.966 395.869C303.44 399.489 291.727 394.287 289.197 393.66C287.532 393.259 285.836 392.994 284.128 392.869L267.251 393.324L280.41 380.393Z" fill="#CF6F80"/>
<path opacity="0.1" d="M314.214 284.749C315.498 284.749 316.538 283.709 316.538 282.427C316.538 281.145 315.498 280.106 314.214 280.106C312.931 280.106 311.891 281.145 311.891 282.427C311.891 283.709 312.931 284.749 314.214 284.749Z" fill="black"/>
<path d="M314.214 283.803C315.498 283.803 316.538 282.763 316.538 281.481C316.538 280.199 315.498 279.16 314.214 279.16C312.931 279.16 311.891 280.199 311.891 281.481C311.891 282.763 312.931 283.803 314.214 283.803Z" fill="#3F3D56"/>
<path opacity="0.1" d="M318.492 385.242C319.775 385.242 320.815 384.203 320.815 382.921C320.815 381.638 319.775 380.599 318.492 380.599C317.208 380.599 316.168 381.638 316.168 382.921C316.168 384.203 317.208 385.242 318.492 385.242Z" fill="black"/>
<path d="M318.492 384.288C319.775 384.288 320.815 383.248 320.815 381.966C320.815 380.684 319.775 379.645 318.492 379.645C317.208 379.645 316.168 380.684 316.168 381.966C316.168 383.248 317.208 384.288 318.492 384.288Z" fill="#3F3D56"/>
<path opacity="0.1" d="M316.529 334.995C317.813 334.995 318.853 333.956 318.853 332.674C318.853 331.392 317.813 330.352 316.529 330.352C315.246 330.352 314.206 331.392 314.206 332.674C314.206 333.956 315.246 334.995 316.529 334.995Z" fill="black"/>
<path d="M316.529 334.05C317.813 334.05 318.853 333.01 318.853 331.728C318.853 330.446 317.813 329.407 316.529 329.407C315.246 329.407 314.206 330.446 314.206 331.728C314.206 333.01 315.246 334.05 316.529 334.05Z" fill="#3F3D56"/>
<path d="M370.093 392.387C370.093 392.387 371.677 394.76 370.093 395.869C368.51 396.978 370.248 399.661 370.248 399.661C370.248 399.661 366.298 401.974 368.037 404.054C369.775 406.135 368.673 415.533 368.673 415.533L363.923 423.391C363.923 423.391 364.207 428.456 364.224 435.3C364.224 445.978 363.596 460.99 360.119 467.834L360.601 523.988C360.601 523.988 343.966 530.058 330.041 528.21L327.976 438.103C327.976 438.103 330.988 387.005 332.098 377.203C332.748 372.114 333.012 366.984 332.89 361.855C332.89 361.855 332.416 346.517 330.824 339.398C330.824 339.398 329.103 308.556 328.931 300.019C328.853 295.935 329.069 284.018 329.31 272.686C329.576 260.296 329.878 248.611 329.878 248.611L326.736 223.78C326.736 223.78 329.878 223.462 330.824 224.726C331.248 225.122 331.709 225.476 332.201 225.784C337.623 229.446 356.78 240.71 356.78 240.71C356.78 240.71 367.383 244.923 369.921 250.958C372.46 256.994 374.224 261.276 375.455 262.996C376.686 264.715 377.357 272.797 377.357 272.797C377.357 272.797 381.006 287.672 383.854 290.191C386.703 292.71 388.786 308.737 388.786 308.737L363.613 328.512C363.613 328.512 361.401 361.408 360.928 362.681C360.455 363.953 370.093 392.387 370.093 392.387Z" fill="white"/>
<path d="M371.049 392.387C371.049 392.387 372.624 394.76 371.049 395.869C369.474 396.978 371.195 399.661 371.195 399.661C371.195 399.661 367.271 402 368.992 404.08C370.713 406.161 369.629 415.559 369.629 415.559L364.878 423.417C364.878 423.417 365.162 428.481 365.188 435.325C365.188 446.004 364.56 461.016 361.083 467.86L361.556 524.014C361.556 524.014 344.895 530.084 330.988 528.235L328.931 438.128C328.931 438.128 331.943 387.03 333.053 377.229C333.704 372.14 333.965 367.01 333.836 361.881C333.836 361.881 333.363 346.542 331.779 339.423C331.779 339.423 330.058 308.582 329.877 300.045C329.8 295.96 330.024 284.044 330.256 272.711C330.523 260.322 330.824 248.637 330.824 248.637L326.676 223.471C326.676 223.471 330.824 223.471 331.779 224.752C332.199 225.152 332.661 225.507 333.156 225.809C338.578 229.472 357.744 240.735 357.744 240.735C357.744 240.735 368.338 244.949 370.877 250.984C373.415 257.02 375.18 261.302 376.419 263.022C377.658 264.741 378.312 272.823 378.312 272.823C378.312 272.823 381.961 287.698 384.81 290.217C387.658 292.736 389.715 308.728 389.715 308.728L364.543 328.504C364.543 328.504 362.331 361.4 361.849 362.672C361.367 363.945 371.049 392.387 371.049 392.387Z" fill="white"/>
<path opacity="0.1" d="M340.902 255.937L343.174 262.557L331.211 274.594C331.478 262.213 331.779 250.52 331.779 250.52L327.631 225.354C327.631 225.354 331.779 225.354 332.735 226.635C333.154 227.034 333.615 227.386 334.112 227.684L344.284 257.003L340.902 255.937Z" fill="black"/>
<path d="M339.947 254.037L342.227 260.657L330.265 272.694C330.532 260.305 330.833 248.62 330.833 248.62L326.676 223.453C326.676 223.453 330.833 223.454 331.779 224.735C332.202 225.133 332.663 225.487 333.156 225.792L343.337 255.103L339.947 254.037Z" fill="white"/>
<path opacity="0.1" d="M339.947 188.528C339.953 191.627 339.465 194.706 338.501 197.651C338.338 197.676 338.172 197.669 338.012 197.629C337.853 197.589 337.703 197.518 337.571 197.419C337.348 189.681 333.535 182.415 328.845 176.233C327.528 174.367 325.932 172.714 324.111 171.332C322.271 169.952 319.983 169.305 317.691 169.518C315.11 169.871 312.829 171.625 310.221 171.848C306.779 172.132 303.698 169.75 300.281 169.63C298.892 169.643 297.522 169.952 296.262 170.536C295.002 171.12 293.882 171.966 292.975 173.018C291.18 175.139 289.846 177.61 289.059 180.274C287.706 184.314 286.969 188.534 286.873 192.793C286.83 195.2 286.598 198.218 284.36 199.095C284.529 197.325 284.327 195.539 283.769 193.85C283.21 192.161 282.307 190.607 281.116 189.285L281.064 189.233C281.064 188.993 281.064 188.769 281.064 188.528C280.997 184.623 281.71 180.743 283.159 177.115C284.609 173.488 286.767 170.185 289.508 167.399C292.249 164.614 295.518 162.401 299.124 160.891C302.729 159.381 306.6 158.603 310.51 158.603C314.419 158.603 318.29 159.381 321.896 160.891C325.501 162.401 328.77 164.614 331.511 167.399C334.252 170.185 336.41 173.488 337.86 177.115C339.31 180.743 340.022 184.623 339.955 188.528H339.947Z" fill="black"/>
<path d="M322.7 141.815C318.228 139.714 313.142 139.316 308.397 140.698C306.013 141.403 303.767 142.546 301.349 143.122C296.185 144.369 290.161 143.019 285.729 146.037C283.267 147.757 281.787 150.474 280.41 153.113L276.968 159.665C275.092 163.25 273.198 166.896 272.415 170.842C271.632 174.789 272.105 179.208 274.61 182.381C276.434 184.694 279.128 186.147 281.107 188.322C282.293 189.645 283.192 191.199 283.749 192.885C284.306 194.572 284.508 196.355 284.343 198.124C286.589 197.264 286.804 194.237 286.856 191.83C286.952 187.571 287.689 183.351 289.042 179.311C289.827 176.647 291.161 174.175 292.958 172.055C293.865 171.004 294.986 170.159 296.246 169.575C297.506 168.991 298.875 168.681 300.264 168.667C303.707 168.787 306.796 171.16 310.204 170.877C312.786 170.662 315.075 168.899 317.674 168.555C319.966 168.339 322.256 168.986 324.094 170.369C325.914 171.749 327.508 173.402 328.819 175.27C333.518 181.452 337.33 188.7 337.554 196.456C338.527 197.169 339.929 196.241 340.411 195.14C340.893 194.04 340.91 192.75 341.521 191.701C342.227 190.489 343.578 189.844 344.637 188.932C347.322 186.62 347.993 182.725 347.89 179.191C347.787 175.657 347.098 172.072 347.769 168.598C348.174 166.466 349.086 164.471 349.585 162.365C350.084 160.258 350.145 157.894 348.966 156.08C347.244 153.414 343.621 152.89 340.463 152.64C336.874 152.331 333.664 152.726 331.375 149.708C330.3 148.134 329.091 146.655 327.76 145.289C327.304 144.842 322.7 142.005 322.7 141.815Z" fill="#512E4E"/>
<path opacity="0.1" d="M229.161 323.13L220.168 306.519L217.319 332.149C217.319 332.149 218.903 343.533 218.584 345.279C218.266 347.024 225.073 362.672 225.073 362.672C225.073 362.672 247.561 402.687 256.744 404.751L287.768 382.603L279.541 372.165C279.541 372.165 276.692 371.055 275.978 372.165C275.978 372.165 260.702 345.906 259.119 344.006C257.535 342.106 257.845 338.314 257.845 338.314C257.845 338.314 255.47 335.786 256.262 333.413C257.053 331.04 251.675 322.812 251.675 322.812L256.58 318.229L229.161 323.13Z" fill="black"/>
<path d="M220.641 304.627L218.266 306.519L215.417 332.149C215.417 332.149 217.001 343.533 216.682 345.279C216.364 347.024 223.18 362.672 223.18 362.672C223.18 362.672 245.659 402.687 254.841 404.751L285.875 382.602L277.639 372.165C277.639 372.165 274.79 371.055 274.076 372.165C274.076 372.165 258.8 345.906 257.217 344.006C255.633 342.106 255.952 338.314 255.952 338.314C255.952 338.314 253.576 335.786 254.368 333.413C255.16 331.04 249.772 322.812 249.772 322.812L254.678 318.229L220.641 304.627Z" fill="white"/>
<path opacity="0.1" d="M368.036 405.035C369.758 407.124 368.673 416.504 368.673 416.504L363.923 424.363C363.923 424.363 364.207 429.436 364.224 436.271L356.238 438.765C355.516 438.99 354.751 439.039 354.006 438.909C353.261 438.779 352.558 438.472 351.956 438.015C351.354 437.559 350.87 436.964 350.544 436.283C350.219 435.601 350.061 434.851 350.084 434.096L351.461 389.722L370.093 396.841C368.51 397.941 370.248 400.641 370.248 400.641C370.248 400.641 366.298 402.945 368.036 405.035Z" fill="black"/>
<path d="M368.992 404.08C370.713 406.17 369.629 415.559 369.629 415.559L364.878 423.417C364.878 423.417 365.162 428.481 365.188 435.325L357.055 437.862C356.349 438.081 355.599 438.129 354.87 438.001C354.141 437.872 353.454 437.572 352.864 437.125C352.275 436.677 351.801 436.096 351.482 435.428C351.163 434.761 351.009 434.027 351.031 433.288L352.417 388.776L371.057 395.895C369.465 396.996 371.204 399.687 371.204 399.687C371.204 399.687 367.271 402 368.992 404.08Z" fill="white"/>
<path d="M375.162 382.929C375.162 382.929 373.897 391.003 370.73 391.476C367.563 391.948 366.143 404.536 362.985 404.089C359.827 403.642 361.918 392.387 362.03 390.203C362.142 388.019 358.587 378.974 361.247 376.919C363.906 374.864 372.322 376.919 372.322 376.919L375.162 382.929Z" fill="#CF6F80"/>
<path opacity="0.1" d="M381.901 320.757L387.874 308.72C387.874 308.72 390.249 317.894 390.249 322.795C390.249 327.696 393.571 328.177 393.571 328.177C393.571 328.177 397.211 332.476 395.292 335.606C393.373 338.735 392.598 346.525 392.598 346.525C392.598 346.525 393.227 361.391 390.378 363.446C387.529 365.501 386.936 370.411 386.936 370.411C386.936 370.411 381.703 379.739 381.867 381.958C382.03 384.176 374.586 399.197 374.586 399.197C374.586 399.197 378.226 380.53 357.012 372.465C357.012 372.465 356.849 366.129 358.432 364.392C360.016 362.655 362.486 361.864 360.937 353.086C359.388 344.307 360.489 333.817 360.489 331.711C360.489 329.604 365.24 316.467 365.24 316.467L381.901 320.757Z" fill="black"/>
<path d="M384.483 307L389.698 308.72C389.698 308.72 392.082 317.894 392.082 322.795C392.082 327.696 395.404 328.177 395.404 328.177C395.404 328.177 399.044 332.476 397.125 335.606C395.206 338.735 394.44 346.525 394.44 346.525C394.44 346.525 395.068 361.391 392.22 363.446C389.371 365.501 388.734 370.411 388.734 370.411C388.734 370.411 383.51 379.739 383.674 381.958C383.837 384.176 376.385 399.197 376.385 399.197C376.385 399.197 380.033 380.53 358.811 372.465C358.811 372.465 358.656 366.129 360.24 364.392C361.823 362.655 364.293 361.864 362.744 353.086C361.195 344.307 362.296 333.817 362.296 331.711C362.296 329.604 367.047 316.467 367.047 316.467L384.483 307Z" fill="white"/>
<path opacity="0.1" d="M269.291 618.996C269.291 618.996 277.604 613.777 283.061 617.569C288.517 621.36 269.291 618.996 269.291 618.996Z" fill="black"/>
<path opacity="0.1" d="M333.888 602.857C333.888 602.857 341.246 601.912 347.425 608.558C353.604 615.204 333.888 602.857 333.888 602.857Z" fill="black"/>
<g opacity="0.1">
<path d="M344.654 187.05C343.595 187.961 342.236 188.614 341.53 189.827C340.928 190.867 340.91 192.148 340.428 193.266C339.947 194.384 338.544 195.295 337.571 194.59C337.348 186.852 333.526 179.586 328.836 173.396C327.525 171.528 325.931 169.874 324.111 168.495C322.27 167.111 319.977 166.465 317.683 166.681C315.101 167.033 312.829 168.787 310.221 169.002C306.779 169.295 303.689 166.913 300.273 166.793C298.884 166.806 297.515 167.117 296.256 167.702C294.998 168.288 293.879 169.136 292.975 170.189C291.178 172.306 289.845 174.775 289.059 177.437C287.707 181.477 286.97 185.697 286.873 189.956C286.822 192.354 286.598 195.347 284.377 196.241C284.429 196.876 284.429 197.514 284.377 198.15C286.615 197.29 286.839 194.263 286.89 191.856C286.986 187.597 287.723 183.377 289.076 179.337C289.862 176.672 291.196 174.201 292.992 172.08C293.898 171.03 295.017 170.185 296.276 169.601C297.534 169.017 298.903 168.707 300.29 168.693C303.732 168.813 306.831 171.186 310.239 170.902C312.82 170.688 315.11 168.925 317.7 168.581C319.994 168.365 322.287 169.012 324.129 170.395C325.948 171.774 327.542 173.428 328.853 175.296C333.544 181.478 337.365 188.726 337.588 196.482C338.561 197.195 339.964 196.267 340.446 195.166C340.928 194.065 340.945 192.776 341.547 191.727C342.253 190.515 343.613 189.87 344.671 188.958C347.356 186.645 348.028 182.751 347.924 179.217C347.924 179.105 347.924 178.993 347.924 178.89C347.761 181.951 346.943 185.072 344.654 187.05Z" fill="black"/>
<path d="M281.124 186.439C279.145 184.264 276.443 182.811 274.627 180.506C273.098 178.467 272.224 176.011 272.122 173.465C271.852 176.647 272.741 179.819 274.627 182.398C276.443 184.711 279.145 186.164 281.124 188.339C283.025 190.467 284.166 193.164 284.369 196.009C284.501 194.277 284.281 192.538 283.724 190.893C283.166 189.249 282.282 187.734 281.124 186.439Z" fill="black"/>
<path d="M349.602 160.482C349.095 162.588 348.191 164.592 347.778 166.715C347.533 168.134 347.444 169.576 347.511 171.014C347.54 170.195 347.629 169.379 347.778 168.572C348.191 166.44 349.095 164.445 349.602 162.339C349.898 161.177 349.994 159.973 349.886 158.779C349.833 159.353 349.738 159.922 349.602 160.482Z" fill="black"/>
</g>
<path opacity="0.1" d="M114.228 653.955C160.541 653.955 198.085 647.931 198.085 640.5C198.085 633.068 160.541 627.044 114.228 627.044C67.9147 627.044 30.3706 633.068 30.3706 640.5C30.3706 647.931 67.9147 653.955 114.228 653.955Z" fill="#77A87E"/>
<path d="M116.93 382.731H111.534V504.109H116.93V382.731Z" fill="#535461"/>
<path d="M150.838 503.74L150.502 509.208L150.02 516.946L149.822 520.162L149.349 527.9L149.142 531.116L148.66 538.854L143.221 626.614C142.985 630.39 141.317 633.934 138.558 636.525C135.798 639.115 132.154 640.558 128.367 640.56H100.088C96.3021 640.558 92.6591 639.115 89.9009 636.524C87.1428 633.933 85.477 630.389 85.2427 626.614L79.8295 538.794L79.3475 531.056L79.1496 527.84L78.6677 520.102L78.4697 516.886L77.9878 509.148L77.6436 503.68C77.5838 502.627 77.7398 501.573 78.1022 500.583C78.4646 499.593 79.0256 498.688 79.7509 497.922C80.4762 497.156 81.3504 496.547 82.3199 496.131C83.2894 495.715 84.3338 495.501 85.389 495.503H143.23C144.281 495.512 145.319 495.736 146.28 496.161C147.242 496.587 148.105 497.205 148.818 497.976C149.531 498.748 150.078 499.658 150.425 500.649C150.773 501.64 150.913 502.692 150.838 503.74Z" fill="#3F3D56"/>
<path d="M150.502 509.208L150.02 516.92H78.4353L77.9534 509.208H150.502Z" fill="#9D9CB5"/>
<path d="M149.822 520.136L149.349 527.857H79.1152L78.6333 520.136H149.822Z" fill="#9D9CB5"/>
<path d="M149.143 531.081L148.669 538.794H79.7952L79.3132 531.081H149.143Z" fill="#9D9CB5"/>
<path d="M69.7174 428.224C101.138 450.939 114.254 486.466 114.254 486.466C114.254 486.466 76.3871 485.168 44.9579 462.452C13.5287 439.736 0.438965 404.218 0.438965 404.218C0.438965 404.218 38.2882 405.508 69.7174 428.224Z" fill="#77A87E"/>
<path d="M0.413086 404.218C0.413086 404.218 39.7254 426.014 52.3332 444.061C64.941 462.108 114.254 486.466 114.254 486.466" stroke="#535461" stroke-width="2" stroke-miterlimit="10"/>
<path d="M90.0019 382.465C107.102 394.82 114.254 414.157 114.254 414.157C114.254 414.157 93.6422 413.452 76.5334 401.097C59.4247 388.741 52.2903 369.396 52.2903 369.396C52.2903 369.396 72.8931 370.101 90.0019 382.465Z" fill="#77A87E"/>
<path d="M52.2903 369.396C52.2903 369.396 73.6849 381.261 80.5439 391.08C87.4029 400.899 114.254 414.157 114.254 414.157" stroke="#535461" stroke-width="2" stroke-miterlimit="10"/>
<path d="M139.082 413.177C119.434 434.749 115.278 462.942 115.278 462.942C115.278 462.942 142.98 456.15 162.611 434.569C182.241 412.988 186.415 384.804 186.415 384.804C186.415 384.804 158.729 391.605 139.082 413.177Z" fill="#77A87E"/>
<path d="M186.432 384.812C186.432 384.812 160.838 406.926 154.332 422.162C147.826 437.398 115.278 462.942 115.278 462.942" stroke="#535461" stroke-width="2" stroke-miterlimit="10"/>
<path d="M860.318 405.585C860.318 405.585 846.11 334.961 851.549 326.174C851.549 326.174 851.747 318.006 851.419 307.594C851.419 307.198 851.419 306.802 851.419 306.398C852.376 307.036 853.374 307.61 854.406 308.118C859.417 310.69 865.17 311.432 870.671 310.216L866.368 305.427C865.335 304.283 864.26 303.045 864.036 301.532C863.812 300.019 864.432 298.669 864.965 297.319C869.053 287.001 869.268 274.027 861.394 266.151C854.741 259.531 853.124 250.984 845.903 244.94C840.628 240.512 837.727 234.02 834.991 227.744C832.676 222.439 830.343 217.091 829.018 211.468C827.985 207.074 827.572 202.526 826.152 198.236C824.732 193.945 822.073 189.775 817.916 187.858C816.436 187.178 814.792 186.792 813.441 185.889C811.668 184.694 810.601 182.751 809.319 181.048C802.804 172.45 780.988 177.514 770.661 181.005C767.853 181.884 765.253 183.323 763.018 185.235L763.113 185.081C763.191 184.952 763.285 184.823 763.371 184.694C762.241 185.607 761.265 186.695 760.48 187.918C758.974 190.3 758.345 193.077 757.089 195.656C755.574 198.708 747.149 207.229 750.772 210.66C751.026 210.89 751.317 211.076 751.633 211.21C752.993 211.775 754.49 211.925 755.936 211.64L755.781 212.01C754.543 215.036 753.909 218.275 753.913 221.545C753.913 235.671 765.574 247.124 779.972 247.124C782.679 247.126 785.37 246.712 787.95 245.894C788.01 246.221 788.062 246.548 788.122 246.874C788.122 247.003 788.165 247.132 788.182 247.261L787.726 247.898C787.704 247.858 787.678 247.821 787.649 247.786L774.137 266.65C772.072 268.103 760.178 276.701 759.507 283.149C758.802 290.208 758.096 298.471 758.096 298.471L758.001 300.242C757.411 300.735 756.72 301.094 755.977 301.295C755.234 301.495 754.457 301.532 753.698 301.403C749.481 300.715 749.481 316.879 749.481 316.879C749.481 316.879 746.676 319.459 744.748 317.223C742.82 314.988 737.725 322.563 737.725 322.563L705.797 323.938L705.066 323.981L703.344 318.659C703.159 318.098 702.76 317.632 702.233 317.363C701.706 317.094 701.094 317.044 700.53 317.223C700.397 317.267 700.267 317.322 700.143 317.387L700.022 317.455L699.799 317.61L699.687 317.713C699.625 317.769 699.568 317.83 699.515 317.894L699.411 318.014L699.36 318.066C699.161 318.34 699.029 318.658 698.976 318.992C698.922 319.327 698.947 319.669 699.05 319.992L700.53 324.557C694.368 325.795 688.069 329.286 693.206 338.899L667.165 334.093L675.59 341.16L719.085 350.128C718.508 351.16 718.887 352.656 720.685 354.762C728.431 363.85 742.545 366.318 748.225 366.954C749.725 370.306 751.598 373.479 753.81 376.412L753.319 385.466C753.319 385.466 738.939 454.473 736.305 457.973C737.635 456.468 738.852 454.867 739.946 453.184C735.772 467.362 729.937 486.767 728.405 489.673C725.944 494.316 723.663 513.103 726.469 514.307C727.329 514.676 729.791 514.496 733.302 514.229V515.786L733.147 574.759C733.147 574.759 733.853 610.931 731.916 614.379C729.98 617.827 729.464 625.058 729.464 625.058C729.464 625.058 721.718 639.322 715.582 645.056C715.54 645.101 715.494 645.141 715.444 645.177L715.255 643.836C715.255 643.836 707.88 653.139 691.563 652.614C691.563 652.614 681.743 658.994 696.305 659.338C710.866 659.682 729.464 658.822 729.464 658.822C729.464 658.822 742.45 639.047 753.328 641.626V656.612H756.659V641.385C758.203 640.369 759.525 639.051 760.544 637.509C761.564 635.968 762.259 634.235 762.588 632.417C762.873 630.544 762.664 628.628 761.982 626.859C761.3 625.091 760.168 623.53 758.698 622.332C758.038 621.736 757.508 621.009 757.142 620.198C756.776 619.387 756.582 618.51 756.573 617.62L756.452 617.723C756.452 617.423 756.375 617.113 756.34 616.795C755.385 609.057 754.189 593.09 758.414 581.277C764.206 565.078 765.962 542.517 761.745 529.087C760.384 524.794 759.266 520.428 758.397 516.009C758.294 515.45 758.199 514.917 758.113 514.418C760.996 514.808 763.85 515.382 766.659 516.138C776.427 518.829 797.795 519.328 816.04 519.182C816.083 519.68 816.135 520.205 816.195 520.729C816.52 524.375 817.201 527.98 818.226 531.494C820.515 538.372 821.565 568.698 821.565 568.698C821.565 568.698 824.517 593.632 822.908 603.777C822.047 609.418 821.187 615.084 820.696 620.776V620.888C820.696 620.888 815.859 634.644 812.322 642.116C812.236 642.305 812.142 642.494 812.056 642.675C811.113 642.761 810.184 642.966 809.293 643.285C809.293 643.285 804.551 652.743 799.826 654.308C795.102 655.873 796.668 661.023 807.365 659.131C818.063 657.24 834.216 655.692 834.216 655.692L834.913 646.045L838.201 641.935L837.34 651.557L840.843 650.869L840.378 639.167L845.757 632.443C845.757 632.443 852.254 626.665 842.598 615.299V615.548C842.495 615.385 842.4 615.213 842.288 615.049V614.998C840.688 612.522 839.414 607.905 841.746 599.711C845.963 584.905 848.416 571.466 848.416 571.466C848.416 571.466 857.831 535.466 846.514 518.434H847.013C845.853 516.037 845.034 513.49 844.578 510.867C844.52 510.558 844.469 510.24 844.423 509.913C852.796 509.432 861.015 507.918 867.719 504.651C867.694 504.617 863.657 419.187 860.318 405.585ZM754.008 346.001V346.173L752.287 346.259L754.008 346.001ZM748.104 346.818C747.821 346.88 747.556 347.007 747.33 347.187C746.59 348.233 746.125 349.449 745.979 350.721L743.293 350.119C743.293 350.119 741.409 349.715 738.698 349.259L737.416 347.97C740.944 347.677 744.61 347.247 748.104 346.818Z" fill="url(#paint1_linear_78_865)"/>
<path d="M836.944 639.287L835.92 651.471L839.354 650.783L838.838 637.568L836.944 639.287Z" fill="#1D2366"/>
<path d="M758.604 581.44C754.464 593.219 755.635 609.117 756.564 616.838C756.908 619.692 757.227 621.429 757.227 621.429C757.227 621.429 751.039 635.513 750.523 636.046C750.006 636.579 732.312 647.369 732.312 647.369L719.946 654.583C719.946 654.583 707.398 649.089 713.414 647.197C714.643 646.705 715.75 645.951 716.658 644.988C722.682 639.27 730.247 625.058 730.247 625.058C730.247 625.058 730.763 617.844 732.657 614.413C734.55 610.983 733.861 574.931 733.861 574.931L734.008 516.164V508.503L757.545 508.675C757.694 511.276 758.033 513.862 758.561 516.413C759.406 520.817 760.5 525.169 761.84 529.448C765.988 542.852 764.267 565.301 758.604 581.44Z" fill="#FFB0B1"/>
<path opacity="0.1" d="M757.227 621.429C757.227 621.429 751.039 635.513 750.523 636.046C750.006 636.579 732.312 647.369 732.312 647.369L719.946 654.583C719.946 654.583 707.398 649.089 713.414 647.197C714.643 646.705 715.75 645.951 716.658 644.988L717.192 648.745L721.314 648.573L756.599 616.855C756.908 619.692 757.227 621.429 757.227 621.429Z" fill="black"/>
<path d="M756.797 617.655L721.314 649.588L717.192 649.76L716.331 643.741C716.331 643.741 709.119 653.01 693.095 652.494C693.095 652.494 683.473 658.848 697.733 659.192C711.994 659.536 730.204 658.676 730.204 658.676C730.204 658.676 742.924 638.9 753.569 641.48V656.414H756.84V641.342C758.36 640.32 759.658 639 760.655 637.463C761.651 635.927 762.327 634.205 762.64 632.4C762.923 630.542 762.723 628.642 762.058 626.883C761.393 625.124 760.287 623.566 758.845 622.358C758.201 621.755 757.687 621.026 757.335 620.217C756.982 619.409 756.799 618.537 756.797 617.655Z" fill="#1D2366"/>
<path d="M840.215 599.805C837.925 607.973 839.173 612.573 840.74 615.041V615.093C842.749 618.139 844.146 621.547 844.853 625.126L844.991 625.9L828.846 649.416L820.085 652.855C820.085 652.855 805.997 648.049 808.57 646.673C809.216 646.338 810.223 644.549 811.376 642.082C814.818 634.644 819.569 620.922 819.569 620.922V620.81C820.068 615.144 820.86 609.495 821.738 603.872C823.312 593.752 820.421 568.913 820.421 568.913C820.421 568.913 819.388 538.708 817.151 531.838C816.14 528.345 815.469 524.763 815.145 521.142C814.681 516.843 814.577 513.301 814.577 513.301C814.577 513.301 823.855 500.404 840.86 514.333C842.22 515.443 843.417 516.74 844.414 518.184C856.162 534.882 846.704 571.664 846.704 571.664C846.704 571.664 844.337 585.042 840.215 599.805Z" fill="#FFB0B1"/>
<path opacity="0.1" d="M845.017 625.9L828.872 649.416L820.111 652.855C820.111 652.855 806.023 648.049 808.596 646.673C809.242 646.338 810.249 644.549 811.402 642.082C817.366 642.03 820.455 647.705 820.455 647.705L828.011 646.501C828.011 646.501 837.977 626.932 840.215 625.737C842.452 624.542 840.559 616.803 840.559 616.803V614.834C840.619 614.903 840.671 614.981 840.74 615.049V615.101C842.749 618.148 844.146 621.556 844.853 625.135L845.017 625.9Z" fill="black"/>
<path d="M820.972 648.212C820.972 648.212 816.669 640.319 808.424 643.234C808.424 643.234 803.785 652.692 799.147 654.222C794.508 655.752 796.057 660.911 806.539 659.028C817.021 657.145 832.822 655.589 832.822 655.589L833.511 645.968L844.165 632.409C844.165 632.409 850.516 626.657 841.067 615.333V617.302C841.067 617.302 842.96 625.04 840.722 626.236C838.485 627.431 828.553 647.008 828.553 647.008L820.972 648.212Z" fill="#1D2366"/>
<path opacity="0.1" d="M757.571 508.658C757.72 511.259 758.059 513.845 758.587 516.396C748.896 514.977 739.903 515.682 734.008 516.147V508.486L757.571 508.658Z" fill="black"/>
<path opacity="0.1" d="M845.37 520.325C845.37 520.325 831.6 520.996 815.18 521.133C814.715 516.834 814.612 513.292 814.612 513.292C814.612 513.292 823.889 500.395 840.895 514.324C842.254 515.435 843.451 516.731 844.449 518.176C844.716 518.909 845.023 519.626 845.37 520.325Z" fill="black"/>
<path d="M845.37 518.778C845.37 518.778 785.059 521.692 766.676 516.542C748.294 511.392 730.075 515.854 727.33 514.659C724.584 513.464 726.813 494.746 729.223 490.112C731.633 485.478 744.851 438.61 744.851 438.61L757.571 372.354L770.971 368.665L771.917 368.399L795.265 361.967L812.374 357.247C812.374 357.247 846.394 489.94 843.476 499.724C842.417 503.471 842.246 507.413 842.977 511.237C843.423 513.849 844.228 516.386 845.37 518.778Z" fill="#1D2366"/>
<path d="M713.233 327.042C713.233 327.042 701.184 339.939 710.307 347.127C719.429 354.315 725.428 347.815 725.428 347.815L713.233 327.042Z" fill="#C7DAF5"/>
<path opacity="0.1" d="M713.233 327.042C713.233 327.042 701.184 339.939 710.307 347.127C719.429 354.315 725.428 347.815 725.428 347.815L713.233 327.042Z" fill="black"/>
<path d="M810.576 242.249C810.576 242.249 809.164 243.59 807.039 245.568C804.009 248.396 799.525 252.532 795.55 255.997C790.042 260.786 785.498 264.303 787.124 261.302C788.751 258.301 788.441 253.074 787.632 248.181C787.572 247.855 787.52 247.528 787.46 247.21C786.79 243.617 785.902 240.068 784.801 236.583C784.801 236.583 793.699 225.096 798.622 220.565C800.455 218.845 801.737 218.14 801.815 219.335C801.901 220.943 803.106 224.494 804.603 228.26C804.646 228.38 804.689 228.492 804.741 228.612C805.739 231.192 806.866 233.84 807.856 236.127C809.371 239.635 810.576 242.249 810.576 242.249Z" fill="#FFB0B1"/>
<path opacity="0.1" d="M804.741 228.612C803.904 233.106 801.876 237.293 798.866 240.735C795.856 244.177 791.976 246.749 787.632 248.181C786.948 244.256 786.002 240.382 784.801 236.583C784.801 236.583 801.556 214.959 801.815 219.335C801.875 220.994 803.183 224.674 804.741 228.612Z" fill="black"/>
<path opacity="0.1" d="M785.962 253.959L788.131 250.907C788.131 250.907 789.568 259.66 794.852 255.799C800.136 251.939 800.394 284.852 800.394 284.852L794.723 369.568L753.741 367.117L754.903 326.182L759.542 305.547L771.014 275.549L777.838 265.635L785.962 253.959Z" fill="black"/>
<path d="M800.395 285.376L795.231 361.976L794.689 370.092L771.84 368.725L770.979 368.674L753.767 367.642L754.929 326.698L759.568 306.063L771.039 276.065L777.864 266.151L785.988 254.432L788.157 251.388C788.157 251.388 789.594 260.141 794.878 256.281L794.99 256.203C800.154 252.936 800.395 285.376 800.395 285.376Z" fill="#1D2366"/>
<path d="M760.144 298.892C760.144 298.892 758.087 303.191 753.956 302.495C749.826 301.798 749.834 317.971 749.834 317.971C749.834 317.971 747.089 320.551 745.196 318.315C743.302 316.08 738.311 323.637 738.311 323.637L707.036 325.013C707.036 325.013 720.952 331.367 718.224 350.592C718.224 350.592 765.471 347.669 767.02 343.206C768.569 338.744 760.144 298.892 760.144 298.892Z" fill="white"/>
<path opacity="0.03" d="M760.144 298.892C760.144 298.892 758.087 303.191 753.956 302.495C749.826 301.798 749.834 317.971 749.834 317.971C749.834 317.971 747.089 320.551 745.196 318.315C743.302 316.08 738.311 323.637 738.311 323.637L707.036 325.013C707.036 325.013 720.952 331.367 718.224 350.592C718.224 350.592 765.471 347.669 767.02 343.206C768.569 338.744 760.144 298.892 760.144 298.892Z" fill="black"/>
<path d="M669.256 335.116L677.5 342.149L745.368 356.396L736.951 347.815L669.256 335.116Z" fill="white"/>
<path d="M786.091 256.668C784.964 258.387 781.737 267.192 779.043 274.878C776.797 281.284 774.921 286.915 774.921 286.915C774.921 286.915 770.54 315.409 768.303 320.559C766.065 325.71 767.278 345.794 767.278 345.794L758.939 395.396C758.939 395.396 755.161 420.975 749.326 436.254C743.569 451.292 737.157 458.342 736.959 458.566C739.541 455.075 753.612 386.343 753.612 386.343L758.259 299.658C758.259 299.658 758.939 291.421 759.628 284.379C760.316 277.337 774.258 267.725 774.258 267.725L787.701 248.628C789.052 250.434 788.148 253.581 786.091 256.668Z" fill="white"/>
<path d="M751.039 368.072C751.039 368.072 731.245 367.212 721.658 355.708C712.071 344.204 743.819 351.117 743.819 351.117L752.072 353.008L751.039 368.072Z" fill="#FFB0B1"/>
<path opacity="0.1" d="M843.476 499.733C842.417 503.48 842.246 507.422 842.977 511.246C821.385 512.776 798.286 506.947 798.286 506.947C793.983 510.902 782.649 516.731 782.649 516.731L776.47 440.209C772.52 429.892 770.971 375.836 770.971 375.836C770.971 375.836 771.324 373.007 771.831 368.768C771.831 368.665 771.831 368.553 771.874 368.45C773.415 356.611 776.47 334.385 777.967 331.384C780.033 327.257 771.616 316.278 771.616 316.278L775.446 283.648L775.911 279.71C783.983 276.108 790.171 264.604 790.171 264.604L794.921 256.289C800.085 252.979 800.352 285.419 800.352 285.419L795.188 362.019L812.297 357.299C812.297 357.299 846.394 489.949 843.476 499.733Z" fill="black"/>
<path d="M865.637 505.021C842.099 516.697 799.319 505.881 799.319 505.881C795.016 509.836 783.682 515.665 783.682 515.665L777.494 439.143C773.552 428.825 772.003 374.77 772.003 374.77C772.003 374.77 776.977 334.436 779.043 330.318C779.645 329.114 779.353 327.326 778.638 325.4C775.127 316.233 773.835 306.366 774.869 296.605L776.521 282.582L776.977 278.653C785.059 275.041 791.246 263.537 791.246 263.537L795.549 256.005L803.467 242.128L807.219 235.559L807.856 236.135L812.718 240.538C812.718 240.538 814.784 242.257 817.882 244.837C824.62 250.511 836.264 260.502 842.271 266.615C847.555 271.998 849.225 292.934 849.707 308.694C850.025 319.072 849.836 327.206 849.836 327.206C844.509 335.967 858.442 406.307 858.442 406.307C861.687 419.901 865.637 505.021 865.637 505.021Z" fill="white"/>
<path opacity="0.03" d="M820.455 263.365C820.455 263.365 804.302 294.086 806.178 305.762C808.054 317.438 813.39 330.653 810.817 333.74C809.932 334.909 808.789 335.859 807.477 336.513C806.165 337.168 804.719 337.511 803.252 337.515C800.67 337.686 793.785 342.493 793.785 343.009C793.785 343.525 787.425 343.525 781.737 345.932C776.048 348.339 767.649 349.706 767.649 349.706C767.649 349.706 751.297 349.191 749.774 350.738C748.251 352.286 746.684 361.546 749.946 368.932C753.208 376.317 756.831 381.829 759.568 382.835C762.304 383.841 779.671 378.028 793.759 376.653C807.847 375.277 823.14 364.125 823.14 364.125C823.14 364.125 839.982 358.107 842.934 347.987C845.886 337.867 839.328 282.247 839.328 282.247C839.328 282.247 834.371 256.324 820.455 263.365Z" fill="black"/>
<path opacity="0.03" d="M818.39 260.786C818.39 260.786 802.236 291.515 804.13 303.183C806.023 314.85 811.341 328.074 808.76 331.169C807.879 332.34 806.738 333.29 805.426 333.945C804.115 334.6 802.67 334.942 801.204 334.944C798.622 335.116 791.737 339.922 791.737 340.438C791.737 340.954 785.377 340.954 779.688 343.353C774 345.751 765.6 347.127 765.6 347.127C765.6 347.127 749.249 346.611 747.734 348.159C746.22 349.707 744.636 358.975 747.906 366.352C751.177 373.729 754.791 379.249 757.528 380.255C760.265 381.261 777.632 375.449 791.72 374.082C805.808 372.715 821.101 361.546 821.101 361.546C821.101 361.546 837.934 355.527 840.852 345.416C843.769 335.305 837.246 279.667 837.246 279.667C837.246 279.667 832.306 253.753 818.39 260.786Z" fill="black"/>
<path d="M819.947 261.818C819.947 261.818 803.794 292.547 805.687 304.214C807.58 315.882 812.899 329.106 810.326 332.192C809.445 333.366 808.303 334.319 806.99 334.975C805.677 335.632 804.229 335.974 802.761 335.976C800.179 336.147 793.294 340.954 793.294 341.461C793.294 341.968 786.943 341.977 781.246 344.384C775.549 346.792 767.158 348.159 767.158 348.159C767.158 348.159 750.807 347.643 749.283 349.191C747.76 350.738 746.194 360.007 749.455 367.384C752.717 374.761 756.34 380.281 759.077 381.287C761.814 382.293 779.181 376.481 793.269 375.105C807.357 373.729 822.65 362.578 822.65 362.578C822.65 362.578 839.492 356.559 842.443 346.439C845.395 336.319 838.881 280.699 838.881 280.699C838.881 280.699 833.855 254.819 819.947 261.818Z" fill="white"/>
<path opacity="0.1" d="M819.595 344.238C819.595 344.238 806.686 341.659 811.178 345.958C815.67 350.257 815.644 354.023 821.144 353.851C826.643 353.679 819.595 344.238 819.595 344.238Z" fill="black"/>
<path opacity="0.1" d="M841.411 436.736C841.411 436.736 835.576 440.682 846.738 449.779C857.9 458.875 841.411 436.736 841.411 436.736Z" fill="black"/>
<path opacity="0.1" d="M830.275 469.176C830.275 469.692 828.209 488.091 835.938 492.691C843.666 497.291 830.275 469.176 830.275 469.176Z" fill="black"/>
<path d="M707.57 324.97C701.339 325.185 687.879 327.085 694.859 340.094C701.029 351.607 711.4 343.911 717.234 338.073C715.811 332.63 712.352 327.94 707.57 324.97Z" fill="#FFB0B1"/>
<path opacity="0.1" d="M817.882 245.361C811.273 249.875 805.73 253.684 804.646 254.475C801.685 256.668 796.04 269.539 792.4 276.108C789.499 281.395 780.076 282.754 776.521 283.089L776.978 279.16C785.059 275.549 791.246 264.045 791.246 264.045L807.219 236.067L812.718 241.062C812.718 241.062 814.784 242.782 817.882 245.361Z" fill="black"/>
<path d="M817.882 244.845C811.273 249.359 805.73 253.168 804.646 253.968C801.685 256.152 796.04 269.023 792.4 275.592C789.499 280.88 780.076 282.238 776.521 282.573L776.978 278.644C785.059 275.033 791.246 263.529 791.246 263.529L807.219 235.551L812.718 240.529C812.718 240.529 814.784 242.231 817.882 244.845Z" fill="#DCE7FF"/>
<path d="M805.162 222.938C805.166 228.099 803.599 233.139 800.67 237.391C797.21 242.418 792.062 246.039 786.158 247.597C780.255 249.156 773.988 248.549 768.495 245.886C763.001 243.223 758.645 238.681 756.217 233.084C753.788 227.487 753.449 221.205 755.26 215.379C757.07 209.553 760.912 204.569 766.086 201.331C771.261 198.092 777.426 196.814 783.463 197.728C789.5 198.643 795.009 201.689 798.99 206.314C802.971 210.939 805.161 216.837 805.162 222.938Z" fill="#FFB0B1"/>
<path opacity="0.1" d="M849.707 308.703C846.212 306.555 843.366 303.5 841.471 299.864C840.034 297.027 839.079 293.751 836.626 291.739C834.414 289.933 831.462 289.495 828.708 288.687C819.655 286.013 812.064 277.758 811.78 268.335C811.643 263.898 813.028 259.47 812.4 255.077C812.043 252.59 811.053 250.237 809.526 248.241C808.767 247.287 807.935 246.393 807.038 245.567C805.834 244.433 804.568 243.332 803.467 242.128C802.773 241.383 802.167 240.561 801.66 239.678C801.25 238.955 800.919 238.192 800.67 237.399C798.949 232.137 800.515 225.895 798.622 220.573L798.518 220.281C797.804 218.389 796.35 216.498 794.327 216.352C792.305 216.205 790.575 217.882 788.647 218.63C784.611 220.195 780.256 217.529 776.891 214.812C773.527 212.095 769.731 208.992 765.454 209.593C762.623 209.998 760.385 211.924 757.778 212.921C757.189 213.149 756.581 213.324 755.962 213.445C758.168 207.947 762.223 203.388 767.429 200.552C772.634 197.716 778.666 196.779 784.488 197.903C790.309 199.028 795.558 202.142 799.33 206.712C803.103 211.282 805.165 217.022 805.162 222.946C805.165 224.735 804.978 226.519 804.603 228.268C804.646 228.389 804.689 228.5 804.741 228.621C805.739 231.2 806.866 233.848 807.856 236.135L812.718 240.538C812.718 240.538 814.784 242.257 817.882 244.837C824.62 250.511 836.264 260.502 842.271 266.615C847.555 272.015 849.208 292.943 849.707 308.703Z" fill="black"/>
<path d="M757.476 197.212C758.707 194.71 759.318 191.907 760.79 189.534C762.95 186.095 766.719 183.894 770.592 182.561C780.704 179.079 802.073 174.024 808.458 182.561C809.715 184.281 810.756 186.19 812.495 187.376C813.82 188.279 815.421 188.666 816.875 189.345C820.946 191.254 823.545 195.415 824.93 199.663C826.316 203.91 826.729 208.467 827.744 212.844C829.044 218.458 831.325 223.78 833.596 229.068C836.273 235.31 839.113 241.784 844.277 246.195C851.325 252.214 852.883 260.734 859.423 267.338C867.169 275.179 866.919 288.119 862.926 298.394C862.401 299.744 861.807 301.154 862.014 302.59C862.22 304.025 863.287 305.332 864.294 306.476L868.528 311.248C858.511 313.664 847.177 308.436 842.512 299.262C841.075 296.425 840.12 293.157 837.659 291.137C835.455 289.331 832.495 288.902 829.75 288.093C820.696 285.411 813.106 277.148 812.822 267.725C812.684 263.297 814.069 258.869 813.441 254.484C813.092 251.98 812.098 249.61 810.558 247.605C808.192 244.519 804.62 242.446 802.692 239.007C799.431 233.255 801.909 225.784 799.56 219.61C798.837 217.719 797.391 215.827 795.369 215.681C793.346 215.535 791.616 217.211 789.68 217.959C785.652 219.524 781.298 216.867 777.933 214.142C774.568 211.416 770.773 208.321 766.487 208.931C763.655 209.327 761.426 211.253 758.819 212.259C756.891 212.998 752.984 213.66 751.297 212.035C747.734 208.76 755.987 200.273 757.476 197.212Z" fill="#591D4B"/>
<path opacity="0.1" d="M844.905 296.425C843.459 293.587 842.512 290.32 840.051 288.308C837.848 286.503 834.887 286.064 832.133 285.256C823.089 282.582 815.498 274.319 815.205 264.896C815.068 260.468 816.453 256.031 815.834 251.646C815.473 249.159 814.481 246.806 812.951 244.811C810.575 241.724 807.004 239.652 805.085 236.213C801.823 230.469 804.302 222.998 801.944 216.816C801.229 214.933 799.775 213.041 797.761 212.887C795.747 212.732 794 214.426 792.072 215.174C788.045 216.738 783.682 214.073 780.325 211.356C776.969 208.639 773.156 205.535 768.879 206.137C766.048 206.541 763.81 208.467 761.211 209.465C759.283 210.204 755.368 210.875 753.681 209.25C750.135 205.81 758.388 197.341 759.869 194.298C761.099 191.787 761.71 188.993 763.191 186.62C763.268 186.491 763.354 186.362 763.44 186.233C762.333 187.149 761.377 188.234 760.609 189.448C759.137 191.821 758.526 194.607 757.296 197.126C755.807 200.17 747.553 208.665 751.108 212.078C752.829 213.712 756.702 213.041 758.629 212.302C761.211 211.296 763.466 209.37 766.297 208.974C770.6 208.364 774.387 211.468 777.743 214.185C781.1 216.902 785.489 219.567 789.499 218.002C791.427 217.254 793.114 215.569 795.179 215.724C797.245 215.879 798.622 217.762 799.37 219.653C801.72 225.827 799.241 233.298 802.503 239.05C804.431 242.429 808.002 244.544 810.369 247.648C811.909 249.653 812.902 252.023 813.252 254.527C813.88 258.912 812.495 263.34 812.632 267.768C812.916 277.225 820.507 285.454 829.56 288.136C832.288 288.944 835.266 289.374 837.469 291.18C839.939 293.2 840.912 296.468 842.323 299.305C846.987 308.479 858.322 313.707 868.339 311.291L866.342 309.038C857.659 309.167 848.872 304.232 844.905 296.425Z" fill="black"/>
<path opacity="0.1" d="M785.575 257.183C784.448 258.903 781.22 267.707 778.527 275.394C776.005 274.414 773.716 268.163 773.716 268.163L787.158 249.058C788.535 250.95 787.632 254.088 785.575 257.183Z" fill="black"/>
<path d="M786.091 256.668C784.964 258.387 781.737 267.191 779.043 274.878C776.521 273.907 774.232 267.647 774.232 267.647L787.675 248.551C789.052 250.434 788.148 253.581 786.091 256.668Z" fill="#DCE7FF"/>
<path d="M707.931 344.505L700.479 321.024C700.39 320.749 700.357 320.459 700.381 320.171C700.406 319.884 700.486 319.604 700.619 319.347C700.752 319.091 700.934 318.863 701.155 318.677C701.376 318.491 701.632 318.351 701.907 318.264C702.462 318.091 703.062 318.144 703.578 318.411C704.094 318.678 704.483 319.138 704.661 319.691L712.114 343.146L711.374 348.056L707.931 344.505Z" fill="#BE8B87"/>
<path opacity="0.1" d="M701.184 318.96C701.74 318.784 702.343 318.836 702.861 319.104C703.379 319.371 703.769 319.833 703.947 320.387L711.4 343.843L710.84 347.523L711.383 348.09L712.123 343.181L704.627 319.725C704.449 319.173 704.06 318.713 703.544 318.445C703.028 318.178 702.428 318.125 701.873 318.298C701.406 318.449 701.003 318.752 700.728 319.158C700.875 319.079 701.027 319.013 701.184 318.96Z" fill="white"/>
<path d="M707.931 344.505L712.114 343.181L711.503 347.205L711.374 348.09L710.152 346.818L707.931 344.505Z" fill="#EFC8C4"/>
<path d="M710.152 346.818C710.225 346.726 710.315 346.65 710.419 346.594C710.479 346.556 710.549 346.536 710.621 346.536C710.693 346.536 710.763 346.556 710.823 346.594C710.882 346.665 710.931 346.743 710.969 346.826C711.026 346.921 711.104 347.002 711.196 347.063C711.288 347.124 711.393 347.164 711.503 347.179L711.374 348.039L710.152 346.818Z" fill="#727A9C"/>
<path d="M700.436 329.364C700.436 329.364 715.384 329.278 711.864 335.632C708.344 341.986 702.845 342.751 702.845 342.751L700.436 329.364Z" fill="#FFB0B1"/>
<path d="M607.465 44.2109H606.819C581.139 44.2109 558.428 57.7872 545.364 77.8205C532.3 57.7872 509.589 44.2109 483.908 44.2109H483.263C463.99 44.3944 445.569 52.1693 432.002 65.8459C418.435 79.5225 410.819 97.9957 410.809 117.251C410.809 141.162 421.291 175.09 441.73 203.007C480.672 256.203 545.364 302.744 545.364 302.744C545.364 302.744 610.055 256.212 648.989 203.007C669.437 175.09 679.91 141.162 679.91 117.251C679.9 97.9971 672.285 79.5252 658.72 65.8489C645.155 52.1725 626.736 44.3967 607.465 44.2109ZM598.231 207.1C595.306 207.089 592.453 206.195 590.046 204.534C587.639 202.874 585.792 200.526 584.745 197.797H569.392C568.381 197.791 567.397 197.469 566.578 196.877C565.758 196.285 565.145 195.453 564.822 194.495L560.106 180.3L545.183 232.395C544.892 233.398 544.284 234.28 543.449 234.908C542.614 235.536 541.598 235.876 540.553 235.878H540.252C539.161 235.825 538.122 235.4 537.308 234.674C536.493 233.948 535.953 232.964 535.777 231.888L520.398 139.477L509.158 194.16C508.9 195.199 508.302 196.122 507.458 196.781C506.614 197.44 505.574 197.798 504.502 197.797H482.875C482.227 197.824 481.58 197.721 480.973 197.492C480.366 197.263 479.811 196.913 479.343 196.465C478.874 196.016 478.502 195.477 478.247 194.881C477.992 194.285 477.861 193.643 477.861 192.995C477.861 192.347 477.992 191.705 478.247 191.109C478.502 190.513 478.874 189.974 479.343 189.525C479.811 189.077 480.366 188.727 480.973 188.499C481.58 188.27 482.227 188.166 482.875 188.193H500.716L516.637 114.672C516.898 113.585 517.529 112.622 518.422 111.948C519.316 111.275 520.415 110.932 521.533 110.979C522.651 111.026 523.718 111.459 524.552 112.205C525.385 112.95 525.934 113.962 526.103 115.067L541.809 209.336L555.183 162.726C555.462 161.744 556.05 160.879 556.862 160.259C557.673 159.639 558.663 159.298 559.684 159.287H559.779C560.79 159.287 561.776 159.606 562.595 160.199C563.414 160.792 564.025 161.628 564.34 162.588L572.869 188.219H584.556C585.386 185.697 586.899 183.453 588.925 181.735C590.952 180.018 593.414 178.893 596.041 178.485C598.667 178.077 601.355 178.402 603.808 179.424C606.261 180.446 608.383 182.125 609.941 184.276C611.499 186.427 612.432 188.967 612.637 191.614C612.842 194.261 612.31 196.914 611.102 199.279C609.893 201.643 608.054 203.628 605.787 205.015C603.52 206.401 600.914 207.134 598.256 207.134L598.231 207.1Z" fill="#77A87E"/>
</g>
<defs>
<linearGradient id="paint0_linear_78_865" x1="306.658" y1="666.233" x2="306.658" y2="137.164" gradientUnits="userSpaceOnUse">
<stop stop-color="#808080" stop-opacity="0.25"/>
<stop offset="0.54" stop-color="#808080" stop-opacity="0.12"/>
<stop offset="1" stop-color="#808080" stop-opacity="0.1"/>
</linearGradient>
<linearGradient id="paint1_linear_78_865" x1="768.888" y1="659.544" x2="768.888" y2="176.336" gradientUnits="userSpaceOnUse">
<stop stop-color="#808080" stop-opacity="0.25"/>
<stop offset="0.54" stop-color="#808080" stop-opacity="0.12"/>
<stop offset="1" stop-color="#808080" stop-opacity="0.1"/>
</linearGradient>
<clipPath id="clip0_78_865">
<rect width="951" height="673" fill="white"/>
</clipPath>
</defs>
</svg>
