<svg width="15" height="19" viewBox="0 0 15 19" fill="none" xmlns="http://www.w3.org/2000/svg">
<path d="M10.6642 7.1307C10.6642 5.17227 9.07094 3.57904 7.11251 3.57904C5.15408 3.57904 3.56085 5.17227 3.56085 7.1307C3.56085 9.08913 5.15408 10.6824 7.11251 10.6824C9.07094 10.6824 10.6642 9.08913 10.6642 7.1307ZM4.74322 7.1307C4.74322 5.82508 5.80689 4.7614 7.11251 4.7614C8.41813 4.7614 9.4818 5.82508 9.4818 7.1307C9.4818 8.43632 8.41813 9.49999 7.11251 9.49999C5.80689 9.49999 4.74322 8.43632 4.74322 7.1307Z" fill="#2E8F25"/>
<path d="M7.11245 19C7.2494 19 7.38635 18.9543 7.49592 18.8585C7.76982 18.6257 14.2158 13.0517 14.2158 7.10788C14.2158 3.19101 11.0293 0 7.10788 0C3.18645 0 0 3.18645 0 7.10788C0 13.0517 6.44594 18.6257 6.71985 18.8585C6.83854 18.9543 6.97549 19 7.11245 19ZM1.19149 7.10788C1.19149 3.84382 3.84839 1.18693 7.11245 1.18693C10.3765 1.18693 13.0334 3.84382 13.0334 7.10788C13.0334 11.7141 8.48198 16.3248 7.11245 17.6076C5.74291 16.3248 1.19149 11.7141 1.19149 7.10788Z" fill="#2E8F25"/>
</svg>
