<svg width="19" height="21" viewBox="0 0 19 21" fill="none" xmlns="http://www.w3.org/2000/svg">
<path d="M7.04544 11.8394C6.79791 11.8394 6.55594 11.9128 6.35013 12.0503C6.14432 12.1878 5.98391 12.3833 5.88919 12.612C5.79446 12.8407 5.76968 13.0923 5.81797 13.3351C5.86626 13.5778 5.98545 13.8008 6.16048 13.9759C6.33551 14.1509 6.55851 14.2701 6.80128 14.3184C7.04405 14.3667 7.29569 14.3419 7.52437 14.2472C7.75306 14.1524 7.94852 13.992 8.08603 13.7862C8.22355 13.5804 8.29695 13.3384 8.29695 13.0909C8.29695 12.759 8.1651 12.4407 7.93039 12.206C7.69569 11.9712 7.37736 11.8394 7.04544 11.8394ZM7.04544 13.5667C6.95134 13.5667 6.85936 13.5388 6.78112 13.4865C6.70288 13.4342 6.6419 13.3599 6.60589 13.273C6.56989 13.186 6.56046 13.0904 6.57882 12.9981C6.59718 12.9058 6.64249 12.821 6.70903 12.7545C6.77556 12.688 6.86033 12.6426 6.95262 12.6243C7.04491 12.6059 7.14057 12.6154 7.2275 12.6514C7.31443 12.6874 7.38874 12.7484 7.44101 12.8266C7.49329 12.9048 7.52119 12.9968 7.52119 13.0909C7.52119 13.2171 7.47107 13.3381 7.38185 13.4273C7.29263 13.5165 7.17162 13.5667 7.04544 13.5667Z" fill="#2E8F25" stroke="#2E8F25" stroke-width="0.2"/>
<path d="M8.58481 17.4091V19.3242H9.63633C9.68616 19.3242 9.73394 19.3044 9.76918 19.2692C9.80441 19.234 9.82421 19.1862 9.82421 19.1364V15.1061C9.82421 14.8505 9.92573 14.6054 10.1064 14.4247C10.2872 14.2439 10.5323 14.1424 10.7878 14.1424H11.4131C11.4131 14.1424 11.4131 14.1424 11.4131 14.1424C11.4503 14.1424 11.4866 14.1314 11.5175 14.1107C11.5483 14.0901 11.5724 14.0608 11.5866 14.0264C11.6009 13.9921 11.6046 13.9543 11.5973 13.9179C11.5901 13.8815 11.5722 13.848 11.5459 13.8217L8.58481 17.4091ZM8.58481 17.4091C8.58481 17.0008 8.42263 16.6093 8.13393 16.3206C7.84524 16.0319 7.45369 15.8697 7.04542 15.8697C6.63715 15.8697 6.2456 16.0319 5.9569 16.3206C5.66821 16.6093 5.50603 17.0008 5.50603 17.4091V19.3242H4.45451C4.40468 19.3242 4.35689 19.3044 4.32166 19.2692C4.28643 19.234 4.26663 19.1862 4.26663 19.1364V15.1061C4.26663 14.8505 4.16511 14.6054 3.98439 14.4247C3.80367 14.2439 3.55857 14.1424 3.303 14.1424H2.67774C2.67774 14.1424 2.67773 14.1424 2.67772 14.1424C2.64058 14.1424 2.60427 14.1314 2.57338 14.1107C2.5425 14.0901 2.51842 14.0608 2.5042 14.0264C2.48999 13.9921 2.48627 13.9543 2.49351 13.9179C2.50076 13.8815 2.51864 13.848 2.5449 13.8217C2.54491 13.8217 2.54491 13.8217 2.54491 13.8217L6.91259 9.45404L8.58481 17.4091ZM17.8848 1.86364V19.3242H10.5796C10.5925 19.2629 10.5994 19.2003 10.6 19.1373V19.1364V15.1061C10.6 15.0562 10.6198 15.0084 10.655 14.9732C10.6902 14.938 10.738 14.9182 10.7878 14.9182H11.4131H11.4131C11.6037 14.9181 11.79 14.8616 11.9484 14.7557C12.1068 14.6498 12.2303 14.4993 12.3032 14.3233C12.3761 14.1472 12.3952 13.9535 12.3581 13.7666C12.3209 13.5797 12.2292 13.408 12.0944 13.2733L12.0944 13.2732L7.72672 8.90555L7.72671 8.90554C7.546 8.72488 7.30094 8.6234 7.04542 8.6234C6.7899 8.6234 6.54484 8.72488 6.36413 8.90554L6.36412 8.90555L1.99642 13.2732L1.99641 13.2733C1.86168 13.408 1.76994 13.5797 1.73278 13.7666C1.69561 13.9535 1.71469 14.1472 1.78761 14.3233C1.86053 14.4993 1.98401 14.6498 2.14244 14.7557C2.30087 14.8616 2.48714 14.9181 2.6777 14.9182H2.67772H3.303C3.35282 14.9182 3.40061 14.938 3.43585 14.9732C3.47108 15.0084 3.49087 15.0562 3.49087 15.1061V19.1364C3.49087 19.3919 3.5924 19.637 3.77312 19.8178C3.95383 19.9985 4.19894 20.1 4.45451 20.1H18.2727C18.3756 20.1 18.4742 20.0591 18.547 19.9864C18.6197 19.9137 18.6606 19.815 18.6606 19.7121V1.86364C18.6606 1.60806 18.559 1.36296 18.3783 1.18224C18.1976 1.00153 17.9525 0.9 17.6969 0.9H7.62118C7.3656 0.9 7.1205 1.00153 6.93978 1.18224C6.75907 1.36296 6.65754 1.60806 6.65754 1.86364V7.90909C6.65754 8.01196 6.69841 8.11062 6.77115 8.18336C6.84389 8.2561 6.94255 8.29697 7.04542 8.29697C7.14829 8.29697 7.24695 8.2561 7.31969 8.18336C7.39243 8.11062 7.4333 8.01196 7.4333 7.90909V1.86364C7.4333 1.81381 7.45309 1.76602 7.48833 1.73079C7.52356 1.69555 7.57135 1.67576 7.62118 1.67576H17.6969C17.7468 1.67576 17.7946 1.69555 17.8298 1.73079C17.865 1.76602 17.8848 1.81381 17.8848 1.86364ZM7.04542 19.3242H6.28178V17.4091C6.28178 17.2066 6.36224 17.0123 6.50545 16.8691C6.64866 16.7259 6.84289 16.6455 7.04542 16.6455C7.24795 16.6455 7.44218 16.7259 7.58539 16.8691C7.7286 17.0123 7.80906 17.2066 7.80906 17.4091V19.3242H7.04542ZM7.17825 9.45404L11.5459 13.8217L6.9126 9.45403C6.94783 9.41881 6.9956 9.39903 7.04542 9.39903C7.09523 9.39903 7.14301 9.41881 7.17824 9.45403C7.17824 9.45403 7.17825 9.45404 7.17825 9.45404Z" fill="#2E8F25" stroke="#2E8F25" stroke-width="0.2"/>
<path d="M8.77274 5.70608H11.0758C11.1786 5.70608 11.2773 5.66522 11.35 5.59248C11.4228 5.51973 11.4637 5.42108 11.4637 5.3182V3.01517C11.4637 2.9123 11.4228 2.81364 11.35 2.7409C11.2773 2.66816 11.1786 2.62729 11.0758 2.62729H8.77274C8.66987 2.62729 8.57121 2.66816 8.49847 2.7409C8.42573 2.81364 8.38486 2.9123 8.38486 3.01517V5.3182C8.38486 5.42108 8.42573 5.51973 8.49847 5.59248C8.57121 5.66522 8.66987 5.70608 8.77274 5.70608ZM9.16062 3.40305H10.6879V4.93033H9.16062V3.40305Z" fill="#2E8F25" stroke="#2E8F25" stroke-width="0.2"/>
<path d="M14.2424 5.70608H16.5454C16.6483 5.70608 16.747 5.66522 16.8197 5.59248C16.8925 5.51973 16.9333 5.42108 16.9333 5.3182V3.01517C16.9333 2.9123 16.8925 2.81364 16.8197 2.7409C16.747 2.66816 16.6483 2.62729 16.5454 2.62729H14.2424C14.1395 2.62729 14.0409 2.66816 13.9681 2.7409C13.8954 2.81364 13.8545 2.9123 13.8545 3.01517V5.3182C13.8545 5.42108 13.8954 5.51973 13.9681 5.59248C14.0409 5.66522 14.1395 5.70608 14.2424 5.70608ZM14.6303 3.40305H16.1576V4.93033H14.6303V3.40305Z" fill="#2E8F25" stroke="#2E8F25" stroke-width="0.2"/>
<path d="M8.38486 9.34848C8.38486 9.45135 8.42573 9.55001 8.49847 9.62275C8.57121 9.69549 8.66987 9.73636 8.77274 9.73636H11.0758C11.1786 9.73636 11.2773 9.69549 11.35 9.62275C11.4228 9.55001 11.4637 9.45135 11.4637 9.34848V7.04545C11.4637 6.94258 11.4228 6.84392 11.35 6.77118C11.2773 6.69843 11.1786 6.65757 11.0758 6.65757H8.77274C8.66987 6.65757 8.57121 6.69843 8.49847 6.77118C8.42573 6.84392 8.38486 6.94258 8.38486 7.04545V9.34848ZM9.16062 7.43333H10.6879V8.9606H9.16062V7.43333Z" fill="#2E8F25" stroke="#2E8F25" stroke-width="0.2"/>
<path d="M13.8545 9.34848C13.8545 9.45135 13.8954 9.55001 13.9681 9.62275C14.0409 9.69549 14.1395 9.73636 14.2424 9.73636H16.5454C16.6483 9.73636 16.747 9.69549 16.8197 9.62275C16.8925 9.55001 16.9333 9.45135 16.9333 9.34848V7.04545C16.9333 6.94258 16.8925 6.84392 16.8197 6.77118C16.747 6.69843 16.6483 6.65757 16.5454 6.65757H14.2424C14.1395 6.65757 14.0409 6.69843 13.9681 6.77118C13.8954 6.84392 13.8545 6.94258 13.8545 7.04545V9.34848ZM14.6303 7.43333H16.1576V8.9606H14.6303V7.43333Z" fill="#2E8F25" stroke="#2E8F25" stroke-width="0.2"/>
<path d="M13.8545 13.3788C13.8545 13.4817 13.8954 13.5803 13.9681 13.6531C14.0409 13.7258 14.1395 13.7667 14.2424 13.7667H16.5454C16.6483 13.7667 16.747 13.7258 16.8197 13.6531C16.8925 13.5803 16.9333 13.4817 16.9333 13.3788V11.0758C16.9333 10.9729 16.8925 10.8743 16.8197 10.8015C16.747 10.7288 16.6483 10.6879 16.5454 10.6879H14.2424C14.1395 10.6879 14.0409 10.7288 13.9681 10.8015C13.8954 10.8743 13.8545 10.9729 13.8545 11.0758V13.3788ZM14.6303 11.4637H16.1576V12.9909H14.6303V11.4637Z" fill="#2E8F25" stroke="#2E8F25" stroke-width="0.2"/>
<path d="M13.8545 17.4091C13.8545 17.512 13.8954 17.6106 13.9681 17.6834C14.0409 17.7561 14.1395 17.797 14.2424 17.797H16.5454C16.6483 17.797 16.747 17.7561 16.8197 17.6834C16.8925 17.6106 16.9333 17.512 16.9333 17.4091V15.1061C16.9333 15.0032 16.8925 14.9045 16.8197 14.8318C16.747 14.759 16.6483 14.7182 16.5454 14.7182H14.2424C14.1395 14.7182 14.0409 14.759 13.9681 14.8318C13.8954 14.9045 13.8545 15.0032 13.8545 15.1061V17.4091ZM14.6303 15.4939H16.1576V17.0212H14.6303V15.4939Z" fill="#2E8F25" stroke="#2E8F25" stroke-width="0.2"/>
<path d="M2.15153 10.0242C2.2544 10.0242 2.35306 9.98338 2.4258 9.91064C2.49854 9.8379 2.53941 9.73924 2.53941 9.63637V9.34849C2.53941 9.24561 2.49854 9.14696 2.4258 9.07421C2.35306 9.00147 2.2544 8.96061 2.15153 8.96061C2.04865 8.96061 1.95 9.00147 1.87725 9.07421C1.80451 9.14696 1.76365 9.24561 1.76365 9.34849V9.63637C1.76365 9.73924 1.80451 9.8379 1.87725 9.91064C1.95 9.98338 2.04865 10.0242 2.15153 10.0242Z" fill="#2E8F25" stroke="#2E8F25" stroke-width="0.2"/>
<path d="M1.28788 10.6H1.57576C1.67863 10.6 1.77729 10.5591 1.85003 10.4864C1.92277 10.4137 1.96364 10.315 1.96364 10.2121C1.96364 10.1093 1.92277 10.0106 1.85003 9.93786C1.77729 9.86512 1.67863 9.82426 1.57576 9.82426H1.28788C1.18501 9.82426 1.08635 9.86512 1.01361 9.93786C0.940866 10.0106 0.9 10.1093 0.9 10.2121C0.9 10.315 0.940866 10.4137 1.01361 10.4864C1.08635 10.5591 1.18501 10.6 1.28788 10.6Z" fill="#2E8F25" stroke="#2E8F25" stroke-width="0.2"/>
<path d="M2.72727 10.6H3.01515C3.11802 10.6 3.21668 10.5591 3.28942 10.4864C3.36216 10.4137 3.40303 10.315 3.40303 10.2121C3.40303 10.1093 3.36216 10.0106 3.28942 9.93786C3.21668 9.86512 3.11802 9.82426 3.01515 9.82426H2.72727C2.6244 9.82426 2.52574 9.86512 2.453 9.93786C2.38026 10.0106 2.33939 10.1093 2.33939 10.2121C2.33939 10.315 2.38026 10.4137 2.453 10.4864C2.52574 10.5591 2.6244 10.6 2.72727 10.6Z" fill="#2E8F25" stroke="#2E8F25" stroke-width="0.2"/>
<path d="M2.15153 10.4C2.04865 10.4 1.95 10.4409 1.87725 10.5136C1.80451 10.5863 1.76365 10.685 1.76365 10.7879V11.0758C1.76365 11.1786 1.80451 11.2773 1.87725 11.35C1.95 11.4228 2.04865 11.4636 2.15153 11.4636C2.2544 11.4636 2.35306 11.4228 2.4258 11.35C2.49854 11.2773 2.53941 11.1786 2.53941 11.0758V10.7879C2.53941 10.685 2.49854 10.5863 2.4258 10.5136C2.35306 10.4409 2.2544 10.4 2.15153 10.4Z" fill="#2E8F25" stroke="#2E8F25" stroke-width="0.2"/>
<path d="M4.74241 7.14546C4.84528 7.14546 4.94394 7.10459 5.01668 7.03185C5.08942 6.95911 5.13029 6.86045 5.13029 6.75758V6.4697C5.13029 6.36683 5.08942 6.26817 5.01668 6.19543C4.94394 6.12269 4.84528 6.08182 4.74241 6.08182C4.63954 6.08182 4.54088 6.12269 4.46814 6.19543C4.39539 6.26817 4.35453 6.36683 4.35453 6.4697V6.75758C4.35453 6.86045 4.39539 6.95911 4.46814 7.03185C4.54088 7.10459 4.63954 7.14546 4.74241 7.14546Z" fill="#2E8F25" stroke="#2E8F25" stroke-width="0.2"/>
<path d="M3.87876 7.72123H4.16664C4.26951 7.72123 4.36817 7.68036 4.44091 7.60762C4.51365 7.53488 4.55452 7.43622 4.55452 7.33335C4.55452 7.23048 4.51365 7.13182 4.44091 7.05908C4.36817 6.98634 4.26951 6.94547 4.16664 6.94547H3.87876C3.77589 6.94547 3.67723 6.98634 3.60449 7.05908C3.53175 7.13182 3.49088 7.23048 3.49088 7.33335C3.49088 7.43622 3.53175 7.53488 3.60449 7.60762C3.67723 7.68036 3.77589 7.72123 3.87876 7.72123Z" fill="#2E8F25" stroke="#2E8F25" stroke-width="0.2"/>
<path d="M5.31815 7.72123H5.60603C5.7089 7.72123 5.80756 7.68036 5.8803 7.60762C5.95304 7.53488 5.99391 7.43622 5.99391 7.33335C5.99391 7.23048 5.95304 7.13182 5.8803 7.05908C5.80756 6.98634 5.7089 6.94547 5.60603 6.94547H5.31815C5.21528 6.94547 5.11662 6.98634 5.04388 7.05908C4.97114 7.13182 4.93027 7.23048 4.93027 7.33335C4.93027 7.43622 4.97114 7.53488 5.04388 7.60762C5.11662 7.68036 5.21528 7.72123 5.31815 7.72123Z" fill="#2E8F25" stroke="#2E8F25" stroke-width="0.2"/>
<path d="M4.74241 7.52122C4.63954 7.52122 4.54088 7.56208 4.46814 7.63482C4.39539 7.70756 4.35453 7.80622 4.35453 7.90909V8.19697C4.35453 8.29985 4.39539 8.3985 4.46814 8.47125C4.54088 8.54399 4.63954 8.58485 4.74241 8.58485C4.84528 8.58485 4.94394 8.54399 5.01668 8.47125C5.08942 8.3985 5.13029 8.29984 5.13029 8.19697V7.90909C5.13029 7.80622 5.08942 7.70756 5.01668 7.63482C4.94394 7.56208 4.84528 7.52122 4.74241 7.52122Z" fill="#2E8F25" stroke="#2E8F25" stroke-width="0.2"/>
<path d="M1.86364 16.4455C1.67305 16.4455 1.48674 16.502 1.32827 16.6079C1.1698 16.7138 1.04629 16.8643 0.973353 17.0403C0.900417 17.2164 0.881334 17.4102 0.918516 17.5971C0.955699 17.784 1.04748 17.9557 1.18224 18.0905C1.31701 18.2253 1.48871 18.317 1.67564 18.3542C1.86257 18.3914 2.05632 18.3723 2.2324 18.2994C2.40849 18.2265 2.55899 18.1029 2.66487 17.9445C2.77076 17.786 2.82727 17.5997 2.82727 17.4091C2.82727 17.1535 2.72575 16.9084 2.54503 16.7277C2.36431 16.547 2.11921 16.4455 1.86364 16.4455ZM1.86364 17.597C1.82648 17.597 1.79015 17.586 1.75926 17.5653C1.72836 17.5447 1.70428 17.5153 1.69006 17.481C1.67584 17.4467 1.67212 17.4089 1.67937 17.3725C1.68662 17.336 1.70451 17.3025 1.73079 17.2763C1.75706 17.25 1.79054 17.2321 1.82698 17.2248C1.86343 17.2176 1.9012 17.2213 1.93553 17.2355C1.96987 17.2498 1.99921 17.2738 2.01985 17.3047C2.0405 17.3356 2.05152 17.3719 2.05152 17.4091C2.05152 17.4589 2.03172 17.5067 1.99649 17.542C1.96125 17.5772 1.91347 17.597 1.86364 17.597Z" fill="#2E8F25" stroke="#2E8F25" stroke-width="0.2"/>
</svg>
