<svg width="200" height="187" viewBox="0 0 200 187" fill="none" xmlns="http://www.w3.org/2000/svg">
<path opacity="0.8" fill-rule="evenodd" clip-rule="evenodd" d="M151.25 35.8209C148.284 40.8721 144.171 43.8801 138.909 44.8471C137.575 45.1434 136.17 45.2905 134.689 45.2905C131.281 45.2905 128.536 44.2143 126.462 42.0619C123.723 38.8668 123.127 34.6333 124.685 29.3593C126.019 24.3104 128.758 20.4869 132.909 17.8866C137.133 15.4335 141.688 13.3925 146.581 11.7593C152.065 9.90323 156.065 9.86313 158.586 11.6479C161.325 13.5039 161.4 17.1046 158.808 22.4543C156.734 26.7613 154.215 31.2176 151.25 35.8209ZM116.455 30.1392C118.532 37.7126 117.714 44.6956 114.01 51.0814C110.08 57.6188 105.34 60.8852 99.782 60.8852C94.1509 60.8852 89.4445 57.5809 85.6652 50.9723C81.9615 44.9541 80.7365 38.6417 81.997 32.0331C83.182 25.5715 85.2962 18.9963 88.3329 12.3119C91.741 4.88547 95.3758 0.839175 99.2262 0.168506C103.526 -0.798506 107.081 2.39664 109.899 9.75172C112.049 15.5471 114.232 22.3407 116.455 30.1392ZM108.568 92.3042C112.125 107.531 115.493 137.573 118.681 182.435H133.465C134.945 182.435 135.688 183.174 135.688 184.663C135.688 185.255 135.465 185.812 135.019 186.334C134.576 186.777 134.058 187 133.465 187H65.9928C64.5077 187 63.7697 186.22 63.7697 184.663C63.7697 183.174 64.5077 182.435 65.9928 182.435H80.8855C85.185 137.35 89.2622 107.235 93.1127 92.0814C95.4091 83.5409 98.0791 79.3075 101.116 79.3832C104.082 79.3832 106.565 83.6902 108.568 92.3042ZM129.908 88.2958C122.496 87.0324 117.754 83.8395 115.68 78.7126C113.53 73.4386 114.864 67.8326 119.683 61.8901C123.979 56.0947 129.387 52.6055 135.91 51.4179C142.579 50.2303 149.471 49.8938 156.587 50.4174C164.591 50.7138 169.704 52.4963 171.927 55.7627C174.297 59.477 172.556 64.0447 166.698 69.4636C161.736 73.9198 156.252 78.3761 150.251 82.8324C145.209 86.696 139.8 88.6278 134.02 88.6278L129.908 88.2958ZM162.143 78.6012C166.142 75.484 170.589 74.1449 175.482 74.5905C179.928 75.0339 184.816 76.2215 190.154 78.1555C195.565 79.9403 198.751 82.2419 199.716 85.0628C200.827 88.405 198.678 91.4152 193.269 94.0889C188.896 96.2435 184.263 98.2466 179.374 100.103C176.778 101.07 174.259 101.551 171.816 101.551C169.15 101.551 166.591 100.994 164.148 99.8799C159.033 97.2819 156.254 93.8995 155.811 89.7418C155.582 85.4349 157.697 81.7205 162.143 78.6012ZM166.142 104.002C173.481 107.418 177.485 111.021 178.147 114.811C179.036 119.118 175.851 122.683 168.59 125.506C163.032 127.66 156.249 129.851 148.248 132.079C145.578 132.821 142.873 133.193 140.134 133.193C135.465 133.193 131.201 132.041 127.351 129.739C120.904 125.8 117.68 121.012 117.68 115.368C117.68 109.871 120.902 105.192 127.351 101.33C133.351 97.6161 139.692 96.3906 146.361 97.6539C152.657 98.7658 159.251 100.883 166.142 104.002ZM75.55 29.473C77.1084 34.6712 76.4793 38.869 73.6603 42.0619C71.4372 44.2143 68.6583 45.2905 65.3236 45.2905C63.9164 45.2905 62.5091 45.1434 61.0997 44.8471C56.0621 43.8066 51.9515 40.7986 48.7636 35.8209H48.6502C45.5378 30.6227 43.0924 26.2043 41.3161 22.5657C38.7195 17.2182 38.7929 13.5774 41.5384 11.6479C43.9839 9.86313 48.0211 9.86313 53.6522 11.6479C58.5453 13.3568 63.0649 15.4 67.2133 17.7752C71.4372 20.4468 74.2161 24.346 75.55 29.473ZM43.4281 50.4174C50.6932 49.8961 57.6183 50.2303 64.2143 51.4179C70.8103 52.6055 76.2947 56.1348 80.6654 62.0015C85.185 67.944 86.4455 73.5143 84.4425 78.7126C82.2927 83.913 77.5508 87.106 70.2189 88.2958L66.2151 88.6278C60.5106 88.6278 55.0995 86.7316 49.9841 82.946C43.2413 77.8191 37.7213 73.3294 33.424 69.4636C27.4972 63.9668 25.7898 59.4369 28.3086 55.8719C30.385 52.6055 35.4248 50.7873 43.4281 50.4174ZM24.5315 74.5927C29.4935 74.1471 33.9798 75.484 37.9837 78.6034C42.4299 81.8721 44.5018 85.5463 44.2062 89.6327C43.7638 93.9419 41.0938 97.3175 36.2029 99.7707C33.7575 100.958 31.1609 101.553 28.422 101.553C25.8298 101.553 23.3066 101.07 20.8634 100.105C16.1215 98.3246 11.4551 96.3549 6.85992 94.2026C1.52443 91.4553 -0.698696 88.4473 0.190553 85.1786C1.22875 82.3533 4.52342 79.9781 10.0812 78.0486C15.4901 76.1881 20.3054 75.0361 24.5315 74.5927ZM82.4461 115.365C82.4461 121.009 79.2582 125.8 72.8845 129.737C68.954 132.039 64.6611 133.191 59.9881 133.191C57.2492 133.191 54.5437 132.818 51.8782 132.076C43.7238 129.848 36.981 127.658 31.6433 125.503C24.2359 122.68 20.9745 119.115 21.866 114.808C22.6041 111.021 26.6813 107.418 34.0932 104C40.7626 100.956 47.3185 98.8393 53.7678 97.6495C60.3638 96.4619 66.7331 97.6874 72.8867 101.326C79.2582 105.116 82.4461 109.795 82.4461 115.365Z" fill="#2C4232"/>
</svg>
