<svg width="114" height="164" viewBox="0 0 114 164" fill="none" xmlns="http://www.w3.org/2000/svg">
<g opacity="0.8">
<path d="M55.5415 111.192C68.4558 111.192 78.9249 100.723 78.9249 87.8087C78.9249 74.8944 68.4558 64.4253 55.5415 64.4253C42.6272 64.4253 32.1581 74.8944 32.1581 87.8087C32.1581 100.723 42.6272 111.192 55.5415 111.192Z" fill="#2C4232"/>
<path d="M23.3893 134.576V160.882C23.3893 161.657 23.6972 162.401 24.2454 162.949C24.7935 163.497 25.537 163.805 26.3122 163.805H84.7707C85.5459 163.805 86.2894 163.497 86.8376 162.949C87.3857 162.401 87.6937 161.657 87.6937 160.882V134.576C87.6937 130.7 86.1539 126.982 83.4131 124.241C80.6724 121.501 76.9551 119.961 73.079 119.961H38.0039C34.1279 119.961 30.4106 121.501 27.6698 124.241C24.929 126.982 23.3893 130.7 23.3893 134.576Z" fill="#2C4232"/>
<path d="M0.385837 57.0888C0.639623 57.5403 1.00882 57.9163 1.45564 58.1782C1.90246 58.4401 2.41085 58.5786 2.92878 58.5795H71.033C71.522 58.5787 72.0031 58.4552 72.432 58.2203C72.861 57.9854 73.2241 57.6466 73.4882 57.235C73.7766 56.8089 73.9473 56.3142 73.9832 55.801C74.0192 55.2878 73.919 54.7741 73.6928 54.312L71.5591 49.8107H64.3102C62.638 49.8093 61.0011 49.3297 59.5925 48.4286C58.1838 47.5275 57.0622 46.2424 56.3599 44.7248L42.5052 14.7356H2.92878C2.40653 14.7346 1.89353 14.8735 1.44315 15.1379C0.992773 15.4023 0.621458 15.7825 0.367829 16.239C0.1142 16.6956 -0.0124783 17.2117 0.000969378 17.7338C0.0144171 18.2559 0.167498 18.7648 0.444294 19.2077L11.2007 36.2191L0.415067 54.1659C0.154069 54.6077 0.013961 55.1103 0.00883018 55.6234C0.00369935 56.1365 0.133725 56.6419 0.385837 57.0888Z" fill="#2C4232"/>
<path d="M111.077 0.120859H46.7727C46.2813 0.119641 45.7976 0.242319 45.3662 0.477551C44.9348 0.712783 44.5696 1.05298 44.3045 1.46669C44.0394 1.8804 43.8828 2.35427 43.8493 2.84449C43.8158 3.33472 43.9065 3.82548 44.1128 4.27141L61.6504 42.2695C61.8852 42.7768 62.2606 43.2062 62.732 43.5067C63.2035 43.8072 63.7512 43.9661 64.3103 43.9648H108.154V160.882C108.154 161.657 108.462 162.4 109.01 162.949C109.558 163.497 110.302 163.805 111.077 163.805C111.852 163.805 112.596 163.497 113.144 162.949C113.692 162.4 114 161.657 114 160.882V3.04379C114 2.26858 113.692 1.52512 113.144 0.976965C112.596 0.428809 111.852 0.120859 111.077 0.120859Z" fill="#2C4232"/>
</g>
</svg>
