<svg width="125" height="160" viewBox="0 0 125 160" fill="none" xmlns="http://www.w3.org/2000/svg">
<g opacity="0.8">
<path d="M87.8518 58.9968C93.3158 51.5079 94.8869 42.0639 92.4255 33.1436C89.5801 22.7394 82.5625 13.6969 73.293 8.21553C66.0485 3.93866 57.7217 1.8264 49.3949 1.09323C45.1006 0.709181 40.7015 0.674268 36.4247 1.19797C36.1279 1.23288 35.8486 1.26779 35.5518 1.32016C33.9458 1.5471 33.0904 3.90374 33.9807 5.16062C34.4695 5.85888 34.871 6.62697 35.2551 7.39507C35.4296 7.76165 35.6042 8.12824 35.7788 8.49483C35.901 8.75668 36.0057 9.00107 36.1279 9.26292C36.1279 9.28038 36.1454 9.31529 36.1628 9.33275C36.1977 9.42003 36.2326 9.52477 36.2675 9.61206C36.7563 10.8515 37.1927 12.1084 37.5768 13.3827C38.0481 14.9538 38.4496 16.5598 38.7638 18.1833C39.1828 20.2955 39.3574 21.6048 39.5494 23.5773C39.8985 27.4353 39.724 31.3106 40.0033 35.1685C40.8412 46.8296 44.4547 60.1839 55.4873 66.2239C61.9288 69.7327 69.3827 69.9421 76.4527 68.7202C77.9365 74.6729 79.0537 80.7303 79.8742 86.8227C80.0662 88.2192 81.8642 88.9873 83.1036 88.6556C84.6224 88.2367 85.1286 86.8401 84.9366 85.4261C84.0638 78.9323 82.8418 72.4733 81.2009 66.1366C83.7321 64.0767 85.984 61.5804 87.8518 58.9968ZM77.8143 62.0866C77.6397 62.2263 77.4652 62.366 77.2906 62.5056L77.2731 62.5231C77.2382 62.558 77.1859 62.5754 77.1509 62.6103C76.7494 62.9071 76.3479 63.1864 75.9464 63.4483C75.7719 62.8373 75.5973 62.2438 75.4227 61.6502C72.5249 52.084 68.7019 42.9193 63.2904 34.4877C62.4525 33.1785 61.5796 31.9042 60.6719 30.6647C60.4799 30.3854 60.2704 30.1236 60.0609 29.8443C60.0085 29.7745 59.9562 29.7046 59.9038 29.6348C59.9038 29.6348 59.9038 29.6348 59.8864 29.6173C59.8864 29.5999 59.8689 29.5999 59.8514 29.5824C59.8514 29.5824 59.8514 29.5824 59.8514 29.565C59.8514 29.565 59.8514 29.565 59.834 29.5475C59.8165 29.5301 59.8165 29.5126 59.7991 29.4951C59.7991 29.4951 59.7816 29.4777 59.7816 29.4602C59.4674 29.0587 59.1357 28.6572 58.804 28.2557C58.2105 27.54 57.5995 26.8243 56.9362 26.1784C55.3127 24.6247 57.7916 22.1459 59.3976 23.717C60.2529 24.5375 61.0036 25.4627 61.7542 26.3879C66.4675 32.2358 70.1858 38.8868 73.2232 45.7473C75.4402 50.7573 77.3255 55.907 78.8792 61.144C78.5475 61.4757 78.1809 61.7899 77.8143 62.0866Z" fill="#5B8D69"/>
<path d="M123.359 97.2792C120.915 100.194 118.436 103.092 115.974 105.99C114.421 107.823 112.867 109.656 111.331 111.489C110.685 112.24 110.074 113.06 109.376 113.741C106.269 116.761 103.092 119.676 99.9493 122.661C98.3782 124.145 96.8071 125.629 95.0091 126.851C91.3607 129.312 87.0489 130.744 82.6673 131.023C81.0089 131.128 79.3505 131.023 77.7096 130.97C75.2307 130.901 72.7519 130.813 70.2731 130.744C67.8815 130.674 65.4899 130.586 63.1158 130.517C61.1607 130.447 59.2929 130.342 57.425 131.075C55.3651 131.896 53.6369 133.641 51.9262 135.038C50.6693 136.068 49.4124 137.098 48.1555 138.128C48.2952 138.285 48.4348 138.424 48.5745 138.582C49.5346 139.611 50.5122 140.641 51.4723 141.689C52.8863 143.242 52.9736 145.459 51.5247 147.013C51.5072 147.048 51.4723 147.065 51.4374 147.1C51.4199 147.118 51.385 147.153 51.3675 147.17C50.9486 147.554 50.5471 147.938 50.1281 148.322C47.8239 150.469 45.5196 152.617 43.2328 154.764C42.2377 155.689 41.2602 156.597 40.2651 157.522C39.6193 158.115 39.0257 158.779 38.1878 159.093C36.704 159.687 35.1154 159.233 34.0157 158.115C33.7364 157.819 33.4571 157.522 33.1952 157.225C31.9034 155.829 30.5942 154.432 29.3024 153.053C24.9557 148.392 20.609 143.731 16.2623 139.07C12.2124 134.724 8.16243 130.377 4.11249 126.048C3.15238 125.018 2.19227 124.005 1.23215 122.958C0.5688 122.242 0.0974713 121.422 0.0101882 120.409C-0.0945515 119.03 0.621169 117.965 1.56383 117.075C5.40428 113.479 9.20983 109.848 13.1027 106.304C14.4817 105.047 16.5067 104.786 18.0429 105.955C19.0554 106.741 19.8933 107.858 20.7661 108.783C20.9756 109.01 21.1851 109.237 21.3945 109.464C24.2749 106.566 27.1378 103.633 30.053 100.753C32.5842 98.2393 36.1803 96.6333 39.6367 95.8826C43.9659 94.94 48.5047 95.3066 52.6419 96.8777C56.3601 98.2917 60.0784 99.7231 63.7792 101.155C67.9339 102.743 72.6472 102.307 77.0288 102.307H83.8718C84.6573 102.307 85.4254 102.307 86.1935 102.464C87.9392 102.813 89.4579 103.79 90.5751 105.152C91.2385 104.873 91.9018 104.576 92.5652 104.297C94.0315 103.668 95.1138 102.499 96.4755 101.678C98.0291 100.736 99.8969 100.037 101.154 98.6932C102.725 97.0173 104.313 95.324 105.885 93.6482C107.421 92.0073 108.922 90.314 110.615 88.8302C113.513 86.3164 118.087 84.8675 121.508 87.2765C123.132 88.4287 124.563 90.0347 124.912 92.0597C125.244 93.9973 124.616 95.7954 123.359 97.2792Z" fill="#5B8D69"/>
</g>
</svg>
