<svg width="162" height="163" viewBox="0 0 162 163" fill="none" xmlns="http://www.w3.org/2000/svg">
<g opacity="0.8">
<path d="M79.9843 31.4109C89.8871 26.598 101.313 26.3446 111.216 30.651L95.9812 50.6628C92.6802 54.9691 93.1881 61.0486 96.9969 64.8484C100.806 68.6481 106.9 69.1547 111.216 65.8616L131.276 50.6628C135.592 60.542 135.339 72.1945 130.514 81.8204C148.796 72.9544 156.922 50.9161 148.542 32.1709C143.718 32.1709 138.893 30.3977 135.339 26.598C131.784 23.0516 129.752 18.2386 129.752 13.4256C110.962 4.81296 88.8715 13.1723 79.9843 31.4109Z" fill="#5B8D69"/>
<path d="M148.542 26.8513C155.975 26.8513 162 20.8404 162 13.4256C162 6.01086 155.975 0 148.542 0C141.11 0 135.085 6.01086 135.085 13.4256C135.085 20.8404 141.11 26.8513 148.542 26.8513Z" fill="#5B8D69"/>
<path d="M13.4577 62.8217C20.8902 62.8217 26.9154 56.8109 26.9154 49.3961C26.9154 41.9813 20.8902 35.9705 13.4577 35.9705C6.02521 35.9705 0 41.9813 0 49.3961C0 56.8109 6.02521 62.8217 13.4577 62.8217Z" fill="#5B8D69"/>
<path d="M21.3291 66.3681C23.3604 86.8866 41.3887 101.832 61.7021 100.312C60.1786 120.071 74.652 138.309 95.4733 140.589C97.7586 135.776 102.075 131.976 107.661 130.457C112.74 129.19 118.072 129.95 122.643 132.736C138.386 120.577 141.94 98.2857 130.768 81.8203C130.006 92.7128 124.42 102.845 115.787 109.178L106.138 86.1266C104.107 81.0603 98.5203 78.2739 93.188 79.7938C87.8557 81.0603 84.5548 86.1266 85.0626 91.6995L88.1096 116.778C77.4451 115.511 67.5423 109.431 61.4482 100.565C59.9247 99.0456 47.2288 91.4462 44.9435 73.9675L70.0814 77.0073C75.4137 77.7672 80.4921 74.2209 82.0156 68.9013C83.2852 63.5817 80.746 58.2621 75.6676 55.9823L52.3072 46.3563C58.6551 37.7437 68.8118 32.1707 79.7303 31.1575C63.7335 20.5183 41.3887 23.3048 28.9467 39.2635C31.7398 43.5699 32.7554 49.1428 31.2319 54.2091C29.9623 59.782 26.1536 64.0883 21.3291 66.3681Z" fill="#5B8D69"/>
<path d="M112.486 162.121C119.918 162.121 125.943 156.11 125.943 148.695C125.943 141.28 119.918 135.27 112.486 135.27C105.053 135.27 99.0281 141.28 99.0281 148.695C99.0281 156.11 105.053 162.121 112.486 162.121Z" fill="#5B8D69"/>
</g>
</svg>
